# Wavefront Obj file
# 
# verts: 110 uv-s: 274
mtllib akkamylator.mtl

g Box001
#pivot 0.000000 0.000000 0.000000

v 33.802799 13.953700 18.511101
v 33.802799 10.931100 18.511101
v 33.802799 10.931100 -18.511101
v 33.802799 13.953700 -18.511101
v 15.915200 13.953700 -1.674300
v -18.063601 13.953700 -4.196900
v -16.076700 13.953700 -3.911200
v -14.559600 13.953700 -2.596600
v -33.802799 13.953700 18.511101
v -33.802799 10.931100 18.511101
v 32.053001 10.931100 17.425900
v -33.802799 10.931100 17.425900
v -33.802799 13.953700 -18.511101
v -33.802799 9.792900 -18.511101
v -33.802799 9.792900 17.425900
v -32.157600 9.792900 17.425900
v -32.157600 -20.653900 17.425900
v 32.053001 -20.653900 17.425900
v -32.157600 9.792900 -18.511101
v -32.157600 -20.653900 -17.358200
v 32.053001 -20.653900 -17.358200
v 32.053001 10.931100 -18.511101
v 32.053001 9.223800 -18.511101
v -32.157600 9.223800 -18.511101
v -32.157600 9.223800 -17.358200
v 32.053001 9.223800 -17.358200
v 17.000401 13.953700 -3.363000
v 17.000401 15.214300 -3.363000
v 18.826401 15.214300 -4.196900
v 18.826401 13.953700 -4.196900
v 20.813299 15.214300 -3.911200
v 20.813299 13.953700 -3.911200
v 22.330400 15.214300 -2.596600
v 22.330400 13.953700 -2.596600
v 22.895901 15.214300 -0.670600
v 22.895901 13.953700 -0.670600
v 22.330400 15.214300 1.255500
v 22.330400 13.953700 1.255500
v 20.813299 15.214300 2.570000
v 20.813299 13.953700 2.570000
v 18.826401 15.214300 2.855700
v 18.826401 13.953700 2.855700
v 17.000401 13.953700 2.021800
v 17.000401 15.214300 2.021800
v 15.915200 13.953700 0.333100
v 15.915200 15.214300 0.333100
v 15.915200 15.214300 -1.674300
v 21.018101 15.214300 -4.214800
v 18.844999 15.214300 -4.527200
v 18.844999 20.653900 -4.527200
v 21.018101 20.653900 -4.214800
v 22.677299 15.214300 -2.777100
v 22.677299 20.653900 -2.777100
v 23.295799 15.214300 -0.670600
v 23.295799 20.653900 -0.670600
v 22.677299 20.653900 1.435900
v 21.018101 20.653900 2.873600
v 21.018101 15.214300 2.873600
v 22.677299 15.214300 1.435900
v 18.844999 15.214300 3.186000
v 18.844999 20.653900 3.186000
v 16.848000 15.214300 2.274000
v 16.848000 20.653900 2.274000
v 15.661000 15.214300 0.427100
v 15.661000 20.653900 0.427100
v 16.848000 20.653900 -3.615200
v 15.661000 20.653900 -1.768300
v 16.848000 15.214300 -3.615200
v 15.661000 15.214300 -1.768300
v -14.559600 15.214300 1.255500
v -16.076700 15.214300 2.570000
v -16.076700 13.953700 2.570000
v -14.559600 13.953700 1.255500
v -18.063601 15.214300 2.855700
v -18.063601 13.953700 2.855700
v -19.889601 15.214300 2.021800
v -19.889601 13.953700 2.021800
v -20.974800 15.214300 0.333100
v -20.974800 13.953700 0.333100
v -20.974800 15.214300 -1.674300
v -20.974800 13.953700 -1.674300
v -19.889601 15.214300 -3.363000
v -19.889601 13.953700 -3.363000
v -18.063601 15.214300 -4.196900
v -16.076700 15.214300 -3.911200
v -14.559600 15.214300 -2.596600
v -13.994100 15.214300 -0.670600
v -13.994100 13.953700 -0.670600
v -13.660300 15.214300 -0.670600
v -14.278800 15.214300 -2.777100
v -14.278800 20.653900 -2.777100
v -13.660300 20.653900 -0.670600
v -20.108101 20.653900 2.274000
v -20.108101 20.653900 -3.615200
v -21.295099 20.653900 -1.768300
v -21.295099 20.653900 0.427100
v -15.938000 20.653900 2.873600
v -15.938000 15.214300 2.873600
v -14.278800 15.214300 1.435900
v -14.278800 20.653900 1.435900
v -18.111099 15.214300 -4.527200
v -15.938000 15.214300 -4.214800
v -18.111099 20.653900 3.186000
v -18.111099 15.214300 3.186000
v -20.108101 15.214300 2.274000
v -21.295099 15.214300 0.427100
v -21.295099 15.214300 -1.768300
v -20.108101 15.214300 -3.615200
v -18.111099 20.653900 -4.527200
v -15.938000 20.653900 -4.214800
# 110 positions

vt 0.788098 0.547993
vt 0.767078 0.547993
vt 0.767078 0.290533
vt 0.788098 0.290533
vt 0.122087 0.350749
vt 0.104544 0.114454
vt 0.106531 0.128271
vt 0.115673 0.138821
vt 0.737540 0.953657
vt 0.758560 0.953657
vt 0.758560 0.483514
vt 0.737540 0.483514
vt 0.745087 0.017168
vt 0.737540 0.005000
vt 0.737540 0.475143
vt 0.745087 0.475143
vt 0.774313 0.032239
vt 0.753293 0.282152
vt 0.782228 0.282152
vt 0.782228 0.032239
vt 0.282282 0.216733
vt 0.282282 0.005000
vt 0.728816 0.005000
vt 0.728816 0.224649
vt 0.719643 0.741104
vt 0.719643 0.729663
vt 0.469730 0.729663
vt 0.469730 0.741104
vt 0.270841 0.679960
vt 0.512737 0.679960
vt 0.512737 0.233426
vt 0.270841 0.233426
vt 0.707882 0.717245
vt 0.261348 0.709330
vt 0.261348 0.721203
vt 0.707882 0.721203
vt 0.253138 0.971559
vt 0.460913 0.971559
vt 0.460913 0.729663
vt 0.249180 0.729663
vt 0.212776 0.491531
vt 0.224649 0.733427
vt 0.005000 0.733427
vt 0.005000 0.491531
vt 0.728705 0.233426
vt 0.520929 0.233426
vt 0.520929 0.679960
vt 0.728705 0.679960
vt 0.241444 0.483514
vt 0.233426 0.483514
vt 0.233426 0.930048
vt 0.241444 0.930048
vt 0.506795 0.773875
vt 0.506795 0.765109
vt 0.494097 0.765109
vt 0.494097 0.773875
vt 0.480280 0.765109
vt 0.480280 0.773875
vt 0.469730 0.765109
vt 0.469730 0.773875
vt 0.257946 0.587491
vt 0.249180 0.587491
vt 0.249180 0.574097
vt 0.257946 0.574097
vt 0.257946 0.600885
vt 0.249180 0.600885
vt 0.496245 0.789629
vt 0.496245 0.780862
vt 0.506795 0.780862
vt 0.506795 0.789629
vt 0.482428 0.789629
vt 0.482428 0.780862
vt 0.469730 0.780862
vt 0.469730 0.789629
vt 0.257946 0.540549
vt 0.257946 0.528805
vt 0.249180 0.528805
vt 0.249180 0.540549
vt 0.249180 0.554509
vt 0.257946 0.554509
vt 0.249180 0.566252
vt 0.257946 0.566252
vt 0.682126 0.787183
vt 0.697238 0.787183
vt 0.697238 0.749355
vt 0.682126 0.749355
vt 0.670587 0.787183
vt 0.670587 0.749355
vt 0.160566 0.771881
vt 0.160566 0.757232
vt 0.198394 0.757232
vt 0.198394 0.771881
vt 0.816433 0.573638
vt 0.818420 0.587455
vt 0.820717 0.587326
vt 0.818544 0.572214
vt 0.045538 0.779306
vt 0.033999 0.779306
vt 0.033999 0.741478
vt 0.045538 0.741478
vt 0.018887 0.741478
vt 0.018887 0.779306
vt 0.005000 0.741478
vt 0.005000 0.779306
vt 0.092057 0.754322
vt 0.092057 0.741478
vt 0.054230 0.741478
vt 0.054230 0.754322
vt 0.198394 0.786530
vt 0.160566 0.786530
vt 0.105864 0.749733
vt 0.118707 0.741478
vt 0.133974 0.741478
vt 0.146819 0.749733
vt 0.711126 0.749355
vt 0.711126 0.787183
vt 0.054230 0.769589
vt 0.092057 0.769589
vt 0.092057 0.782433
vt 0.054230 0.782433
vt 0.193694 0.750245
vt 0.183144 0.750245
vt 0.183144 0.741478
vt 0.193694 0.741478
vt 0.169326 0.750245
vt 0.169326 0.741478
vt 0.156628 0.750245
vt 0.156628 0.741478
vt 0.249180 0.495257
vt 0.257946 0.495257
vt 0.257946 0.483514
vt 0.249180 0.483514
vt 0.249180 0.509217
vt 0.257946 0.509217
vt 0.249180 0.520961
vt 0.257946 0.520961
vt 0.506795 0.758121
vt 0.506795 0.749355
vt 0.494097 0.749355
vt 0.494097 0.758121
vt 0.480280 0.749355
vt 0.480280 0.758121
vt 0.469730 0.749355
vt 0.469730 0.758121
vt 0.133887 0.103460
vt 0.133887 0.116853
vt 0.125121 0.116853
vt 0.125121 0.103460
vt 0.125121 0.130248
vt 0.133887 0.130248
vt 0.515021 0.764004
vt 0.515021 0.749355
vt 0.552849 0.749355
vt 0.552849 0.764004
vt 0.607610 0.757610
vt 0.566655 0.757610
vt 0.579498 0.749355
vt 0.594765 0.749355
vt 0.650357 0.787183
vt 0.650357 0.749355
vt 0.661895 0.749355
vt 0.661895 0.787183
vt 0.818420 0.648041
vt 0.820717 0.648371
vt 0.818545 0.633259
vt 0.816433 0.634223
vt 0.635245 0.787183
vt 0.635245 0.749355
vt 0.621357 0.749355
vt 0.621357 0.787183
vt 0.804905 0.678464
vt 0.767078 0.678464
vt 0.767078 0.691308
vt 0.804905 0.691308
vt 0.804905 0.706575
vt 0.767078 0.706575
vt 0.767078 0.719419
vt 0.804905 0.719419
vt 0.793728 0.765522
vt 0.807616 0.765522
vt 0.807616 0.727694
vt 0.793728 0.727694
vt 0.778616 0.765522
vt 0.778616 0.727694
vt 0.767078 0.727694
vt 0.767078 0.765522
vt 0.515021 0.778653
vt 0.552849 0.778653
vt 0.005000 0.005000
vt 0.104544 0.370994
vt 0.106531 0.384812
vt 0.005000 0.475143
vt 0.110343 0.358296
vt 0.115673 0.395362
vt 0.262460 0.475143
vt 0.129067 0.399295
vt 0.142461 0.395362
vt 0.151602 0.384812
vt 0.262460 0.005000
vt 0.153589 0.370994
vt 0.147790 0.358296
vt 0.136047 0.350749
vt 0.153589 0.114454
vt 0.122087 0.094209
vt 0.110343 0.101755
vt 0.147790 0.101755
vt 0.136047 0.094209
vt 0.142461 0.138821
vt 0.151602 0.128271
vt 0.129067 0.142754
vt 0.995000 0.005000
vt 0.995000 0.017168
vt 0.753293 0.024692
vt 0.774313 0.024692
vt 0.270841 0.224649
vt 0.270841 0.216733
vt 0.719323 0.688310
vt 0.249180 0.688310
vt 0.249180 0.709330
vt 0.719323 0.717245
vt 0.249180 0.979576
vt 0.253138 0.979576
vt 0.212776 0.483514
vt 0.224649 0.483514
vt 0.801531 0.609468
vt 0.800877 0.607700
vt 0.786918 0.607700
vt 0.786264 0.609468
vt 0.814374 0.601213
vt 0.812621 0.600154
vt 0.775174 0.600154
vt 0.773420 0.601213
vt 0.769375 0.587455
vt 0.767078 0.587326
vt 0.771361 0.573638
vt 0.769250 0.572214
vt 0.780503 0.563088
vt 0.779248 0.560675
vt 0.793897 0.559155
vt 0.793897 0.556374
vt 0.807291 0.563088
vt 0.808547 0.560675
vt 0.140990 0.790271
vt 0.126341 0.794572
vt 0.153160 0.763620
vt 0.150988 0.778733
vt 0.111692 0.790271
vt 0.101694 0.778733
vt 0.099521 0.763620
vt 0.601781 0.798148
vt 0.587132 0.802449
vt 0.613951 0.771497
vt 0.611780 0.786609
vt 0.572483 0.798148
vt 0.562485 0.786609
vt 0.560312 0.771497
vt 0.779249 0.621720
vt 0.780503 0.623673
vt 0.793898 0.619740
vt 0.793898 0.617419
vt 0.769251 0.633259
vt 0.771361 0.634223
vt 0.767078 0.648371
vt 0.769374 0.648041
vt 0.773420 0.662258
vt 0.775174 0.660739
vt 0.786264 0.670513
vt 0.786917 0.668286
vt 0.807292 0.623673
vt 0.808547 0.621720
vt 0.801531 0.670513
vt 0.800877 0.668286
vt 0.814375 0.662258
vt 0.812621 0.660739
# 274 texture coordinates

vn 0.301511 0.904534 0.301511
vn 0.485071 -0.727607 0.485071
vn 0.577350 -0.577350 -0.577350
vn 0.408248 0.816497 -0.408248
vn -0.343802 0.933601 -0.100945
vn -0.098525 0.721571 -0.685295
vn 0.401994 -0.252136 -0.880243
vn 0.582438 0.721570 -0.374302
vn -0.162221 0.973328 0.162221
vn -0.577350 -0.577350 0.577350
vn 0.577350 -0.577350 0.577350
vn -0.816497 -0.408248 0.408248
vn -0.408248 0.816497 -0.408248
vn -0.577350 -0.577350 -0.577350
vn -0.666667 -0.333333 0.666667
vn -0.408248 -0.408248 -0.816497
vn 0.301511 -0.301511 -0.904534
vn -0.816497 -0.408248 -0.408248
vn 0.816497 -0.408248 -0.408248
vn -0.580747 0.462128 -0.670202
vn -0.453392 -0.721572 -0.523230
vn -0.098525 -0.721571 -0.685295
vn -0.098525 0.721571 -0.685295
vn 0.287616 -0.721570 -0.629773
vn 0.287616 0.721570 -0.629773
vn 0.582438 -0.721570 -0.374302
vn 0.841258 0.000000 -0.540635
vn 0.692343 -0.721568 -0.000005
vn 0.886815 -0.462125 -0.000002
vn 0.582432 -0.721573 0.374307
vn 0.582432 0.721573 0.374307
vn 0.287605 -0.721568 0.629780
vn 0.409279 0.171140 0.896215
vn -0.098525 -0.721571 0.685295
vn -0.126200 0.462127 0.877788
vn -0.453392 0.721572 0.523230
vn -0.453392 -0.721572 0.523230
vn -0.517028 0.842400 0.151806
vn -0.664301 -0.721569 0.195047
vn -0.664301 -0.721569 -0.195047
vn -0.098538 -0.721569 -0.685295
vn -0.126216 0.462125 -0.877787
vn 0.287602 0.721571 -0.629778
vn 0.582436 -0.721571 -0.374305
vn 0.746037 0.462127 -0.479444
vn 0.692343 0.721569 0.000000
vn 0.746037 0.462127 0.479444
vn 0.368387 0.462127 0.806678
vn 0.287602 -0.721571 0.629778
vn 0.582436 -0.721571 0.374305
vn -0.098538 -0.721569 0.685295
vn -0.061562 0.901612 0.428143
vn -0.453381 -0.721569 0.523244
vn -0.453381 0.721569 0.523244
vn -0.850891 -0.462127 0.249848
vn -0.850888 0.462128 0.249855
vn -0.352868 0.842400 -0.407243
vn -0.850888 0.462128 -0.249855
vn -0.453381 -0.721569 -0.523244
vn -0.906355 -0.328167 -0.266134
vn 0.582432 -0.721573 0.374307
vn 0.582432 0.721573 0.374307
vn -0.076682 0.842401 0.533367
vn -0.664301 -0.721569 0.195047
vn -0.664301 -0.721569 -0.195047
vn -0.453392 -0.721572 -0.523230
vn -0.453392 0.721572 -0.523230
vn 0.692343 -0.721568 -0.000005
vn 0.692343 0.721568 -0.000005
vn 0.746037 0.462127 -0.479444
vn 0.368387 0.462127 0.806678
vn 0.582436 -0.721571 0.374305
vn 0.746037 0.462127 0.479444
vn 0.287602 -0.721571 -0.629778
vn 0.287602 0.721571 -0.629778
# 75 normals

usemtl wire_135059008
f 1/1/1 2/2/2 3/3/3 4/4/4
f 5/5/5 6/6/6 7/7/7 8/8/8
f 9/9/9 10/10/10 2/11/2 1/12/1
f 11/13/11 2/14/2 10/15/10 12/16/12
f 12/17/12 13/18/13 14/19/14 15/20/10
f 16/21/15 17/22/10 18/23/2 11/24/11
f 14/25/14 19/26/16 16/27/15 15/28/10
f 17/29/10 20/30/14 21/31/3 18/32/2
f 19/33/16 22/34/17 23/35/3 24/36/14
f 25/37/18 20/38/14 17/39/10 16/40/15
f 26/41/19 11/42/11 18/43/2 21/44/3
f 20/45/14 25/46/18 26/47/19 21/48/3
f 23/49/3 26/50/19 25/51/18 24/52/14
f 27/53/20 28/54/21 29/55/22 30/56/23
f 31/57/24 32/58/25 30/56/23 29/55/22
f 33/59/26 34/60/27 32/58/25 31/57/24
f 35/61/28 36/62/29 34/63/27 33/64/26
f 37/65/30 38/66/31 36/62/29 35/61/28
f 39/67/32 40/68/33 38/69/31 37/70/30
f 41/71/34 42/72/35 40/68/33 39/67/32
f 43/73/36 42/72/35 41/71/34 44/74/37
f 45/75/38 43/76/36 44/77/37 46/78/39
f 47/79/40 5/80/5 45/75/38 46/78/39
f 28/81/21 27/82/20 5/80/5 47/79/40
f 48/83/7 49/84/41 50/85/42 51/86/43
f 52/87/44 48/83/7 51/86/43 53/88/45
f 54/89/29 52/90/44 53/91/45 55/92/46
f 31/93/24 29/94/22 49/95/41 48/96/7
f 56/97/47 57/98/48 58/99/49 59/100/50
f 60/101/51 58/99/49 57/98/48 61/102/52
f 62/103/53 60/101/51 61/102/52 63/104/54
f 64/105/55 62/106/53 63/107/54 65/108/56
f 54/89/29 55/92/46 56/109/47 59/110/50
f 66/111/57 67/112/58 65/113/56 63/114/54
f 66/115/57 50/85/42 49/84/41 68/116/59
f 65/108/56 67/117/58 69/118/60 64/105/55
f 68/119/59 69/118/60 67/117/58 66/120/57
f 70/121/61 71/122/32 72/123/33 73/124/62
f 74/125/34 75/126/63 72/123/33 71/122/32
f 75/126/63 74/125/34 76/127/37 77/128/36
f 78/129/64 79/130/55 77/131/36 76/132/37
f 80/133/65 81/134/60 79/130/55 78/129/64
f 80/133/65 82/135/66 83/136/67 81/134/60
f 83/137/67 82/138/66 84/139/22 6/140/6
f 85/141/24 7/142/7 6/140/6 84/139/22
f 7/142/7 85/141/24 86/143/26 8/144/8
f 86/145/26 87/146/68 88/147/69 8/148/8
f 73/149/62 88/147/69 87/146/68 70/150/61
f 89/151/29 90/152/27 91/153/70 92/154/46
f 93/155/54 94/156/57 95/157/58 96/158/56
f 97/159/71 98/160/33 99/161/72 100/162/73
f 84/163/22 101/164/41 102/165/74 85/166/24
f 103/167/52 104/168/51 98/160/33 97/159/71
f 105/169/53 104/168/51 103/167/52 93/170/54
f 105/171/53 93/172/54 96/173/56 106/174/55
f 107/175/60 106/174/55 96/173/56 95/176/58
f 107/175/60 95/176/58 94/177/57 108/178/59
f 101/179/41 108/180/59 94/181/57 109/182/42
f 102/183/74 101/179/41 109/182/42 110/184/75
f 102/183/74 110/184/75 91/185/70 90/186/27
f 99/187/72 89/151/29 92/154/46 100/188/73
f 13/189/13 30/190/23 32/191/25 4/192/4
f 13/189/13 5/5/5 27/193/20 30/190/23
f 34/194/27 1/195/1 4/192/4 32/191/25
f 36/196/29 38/197/31 1/195/1 34/194/27
f 40/198/33 9/199/9 1/195/1 38/197/31
f 42/200/35 43/201/36 9/199/9 40/198/33
f 45/202/38 75/203/63 9/199/9 43/201/36
f 13/189/13 9/199/9 81/204/60 83/205/67
f 9/199/9 77/206/36 79/207/55 81/204/60
f 9/199/9 75/203/63 77/206/36
f 45/202/38 73/208/62 72/209/33 75/203/63
f 45/202/38 5/5/5 88/210/69 73/208/62
f 5/5/5 8/8/8 88/210/69
f 6/6/6 5/5/5 13/189/13 83/205/67
f 3/211/3 2/14/2 11/13/11 22/212/17
f 9/213/9 13/18/13 12/17/12 10/214/10
f 16/21/15 11/24/11 12/215/12 15/216/10
f 22/34/17 13/217/13 4/218/4 3/219/3
f 22/34/17 19/33/16 14/220/14 13/217/13
f 25/37/18 16/40/15 19/221/16 24/222/14
f 11/42/11 26/41/19 23/223/3 22/224/17
f 69/225/60 47/226/40 46/227/39 64/228/55
f 68/229/59 28/230/21 47/226/40 69/225/60
f 46/227/39 44/231/37 62/232/53 64/228/55
f 49/95/41 29/94/22 28/230/21 68/229/59
f 44/231/37 41/233/34 60/234/51 62/232/53
f 41/233/34 39/235/32 58/236/49 60/234/51
f 39/235/32 37/237/30 59/238/50 58/236/49
f 37/237/30 35/239/28 54/240/29 59/238/50
f 35/239/28 33/241/26 52/242/44 54/240/29
f 33/241/26 31/93/24 48/96/7 52/242/44
f 56/243/47 55/244/46 61/245/52 57/246/48
f 53/247/45 51/248/43 61/245/52 55/244/46
f 50/249/42 66/111/57 61/245/52 51/248/43
f 66/111/57 63/114/54 61/245/52
f 100/250/73 92/251/46 103/252/52 97/253/71
f 91/254/70 110/255/75 103/252/52 92/251/46
f 109/256/42 94/156/57 103/252/52 110/255/75
f 94/156/57 93/155/54 103/252/52
f 99/257/72 70/258/61 87/259/68 89/260/29
f 98/261/33 71/262/32 70/258/61 99/257/72
f 104/263/51 74/264/34 71/262/32 98/261/33
f 105/265/53 76/266/37 74/264/34 104/263/51
f 106/267/55 78/268/64 76/266/37 105/265/53
f 87/259/68 86/269/26 90/270/27 89/260/29
f 86/269/26 85/166/24 102/165/74 90/270/27
f 107/271/60 80/272/65 78/268/64 106/267/55
f 108/273/59 82/274/66 80/272/65 107/271/60
f 101/164/41 84/163/22 82/274/66 108/273/59

# 110 faces
