# Wavefront Obj file
# 
# verts: 8 uv-s: 24
mtllib floor.mtl

g Box017
#pivot 0.000000 0.000000 0.000000

v -51.808701 0.000000 -49.784901
v -51.808701 0.000000 49.784901
v 51.808701 0.000000 49.784901
v 51.808701 0.000000 -49.784901
v 51.808701 -0.809500 49.784901
v -51.808701 -0.809500 49.784901
v -51.808701 -0.809500 -49.784901
v 51.808701 -0.809500 -49.784901
# 8 positions

vt 0.005000 0.005000
vt 0.477565 0.005000
vt 0.477565 0.496775
vt 0.005000 0.496775
vt 0.483860 0.005000
vt 0.483860 0.496775
vt 0.956424 0.496775
vt 0.956424 0.005000
vt 0.005000 0.503225
vt 0.005000 0.995000
vt 0.008842 0.995000
vt 0.008842 0.503225
vt 0.029968 0.503225
vt 0.029968 0.975790
vt 0.026126 0.975790
vt 0.026126 0.503225
vt 0.015563 0.503225
vt 0.015563 0.995000
vt 0.019405 0.995000
vt 0.019405 0.503225
vt 0.036689 0.503225
vt 0.036689 0.975790
vt 0.040531 0.975790
vt 0.040531 0.503225
# 24 texture coordinates

vn -0.577350 0.577350 -0.577350
vn -0.577350 0.577350 0.577350
vn 0.577350 0.577350 0.577350
vn 0.577350 0.577350 -0.577350
vn 0.577350 -0.577350 0.577350
vn -0.577350 -0.577350 0.577350
vn -0.577350 -0.577350 -0.577350
vn 0.577350 -0.577350 -0.577350
# 8 normals

usemtl wire_061135006
f 1/1/1 2/2/2 3/3/3 4/4/4
f 5/5/5 6/6/6 7/7/7 8/8/8
f 3/9/3 2/10/2 6/11/6 5/12/5
f 4/13/4 3/14/3 5/15/5 8/16/8
f 1/17/1 4/18/4 8/19/8 7/20/7
f 2/21/2 1/22/1 7/23/7 6/24/6

# 6 faces
