# Wavefront Obj file
# 
# verts: 32 uv-s: 92
mtllib iashik.mtl

g Box002
#pivot 0.000000 0.000000 0.000000

v 7.500000 -3.000000 -10.712000
v 7.500000 -3.000000 9.288000
v -7.500000 -3.000000 9.288000
v -7.500000 -3.000000 -10.712000
v 7.500000 3.000000 9.288000
v 7.500000 3.000000 -10.712000
v -7.500000 3.000000 -10.712000
v -7.500000 3.000000 9.288000
v -5.717800 3.000000 -8.454700
v 6.059600 3.000000 -8.454700
v -5.717800 -1.256200 7.081400
v -5.717800 -1.256200 -8.454700
v -5.717800 3.000000 7.081400
v 6.059600 3.000000 7.081400
v 6.059600 -1.256200 7.081400
v 6.059600 -1.256200 -8.454700
v 1.587800 -0.653800 9.288000
v -1.454100 -0.653800 9.288000
v 2.775100 -0.653800 9.288000
v -1.454100 0.066400 9.288000
v -0.070400 0.066400 9.808400
v -0.070400 -0.653800 9.808400
v -2.915900 -0.653800 9.641800
v -2.915900 -0.653800 9.288000
v -2.915900 0.066400 9.641800
v -2.915900 0.066400 9.288000
v 2.775100 0.066400 9.819000
v 2.775100 0.066400 9.288000
v 1.587800 0.066400 9.288000
v 2.775100 -0.653800 9.819000
v -0.070400 0.066400 10.712000
v -0.070400 -0.653800 10.712000
# 32 positions

vt 0.432146 0.005000
vt 0.005000 0.005000
vt 0.005000 0.325359
vt 0.432146 0.325359
vt 0.567394 0.691138
vt 0.439250 0.691138
vt 0.439250 0.263992
vt 0.567394 0.263992
vt 0.203626 0.663191
vt 0.203626 0.983550
vt 0.331769 0.983550
vt 0.331769 0.663191
vt 0.575562 0.691138
vt 0.703706 0.691138
vt 0.703706 0.263992
vt 0.575562 0.263992
vt 0.053210 0.372158
vt 0.053210 0.623692
vt 0.005000 0.654455
vt 0.005000 0.334095
vt 0.711874 0.595801
vt 0.711874 0.263992
vt 0.802775 0.263992
vt 0.802775 0.595801
vt 0.711874 0.854358
vt 0.802775 0.854358
vt 0.802775 0.602824
vt 0.711874 0.602824
vt 0.095901 0.995000
vt 0.095901 0.663191
vt 0.005000 0.663191
vt 0.005000 0.995000
vt 0.104313 0.914724
vt 0.195214 0.914724
vt 0.195214 0.663191
vt 0.104313 0.663191
vt 0.439250 0.256533
vt 0.439250 0.005000
vt 0.771060 0.005000
vt 0.771060 0.256533
vt 0.534028 0.748351
vt 0.469061 0.748351
vt 0.660297 0.698243
vt 0.559386 0.748351
vt 0.317275 0.396212
vt 0.317275 0.380831
vt 0.287723 0.380831
vt 0.287723 0.396212
vt 0.084329 0.502375
vt 0.091885 0.502375
vt 0.091885 0.471155
vt 0.080771 0.441603
vt 0.347727 0.380831
vt 0.347727 0.388387
vt 0.363108 0.388387
vt 0.363108 0.380831
vt 0.111759 0.502375
vt 0.100418 0.502375
vt 0.100418 0.477018
vt 0.111533 0.441603
vt 0.339741 0.392172
vt 0.324359 0.392172
vt 0.324359 0.380831
vt 0.339741 0.380831
vt 0.245330 0.396212
vt 0.184558 0.396212
vt 0.184558 0.380831
vt 0.245330 0.380831
vt 0.123786 0.396212
vt 0.123786 0.380831
vt 0.252308 0.380831
vt 0.252308 0.396212
vt 0.385019 0.623692
vt 0.432146 0.654455
vt 0.385019 0.372158
vt 0.432146 0.334095
vt 0.437842 0.748351
vt 0.339937 0.698243
vt 0.437842 0.763733
vt 0.339937 0.826386
vt 0.469061 0.763733
vt 0.660297 0.826386
vt 0.534028 0.763733
vt 0.559386 0.763733
vt 0.080544 0.380831
vt 0.061472 0.441603
vt 0.091885 0.406188
vt 0.091885 0.380831
vt 0.107975 0.380831
vt 0.130831 0.441603
vt 0.100418 0.412051
vt 0.100418 0.380831
# 92 texture coordinates

vn 0.577350 -0.577350 -0.577350
vn 0.301511 -0.301511 0.904534
vn -0.408248 -0.408248 0.816497
vn -0.577350 -0.577350 -0.577350
vn 0.371391 0.557086 0.742781
vn 0.485071 0.727607 -0.485071
vn -0.485071 0.727607 -0.485071
vn -0.426401 0.639602 0.639602
vn 0.408248 0.816497 0.408248
vn -0.408248 0.816497 0.408248
vn 0.408248 0.816497 -0.408248
vn -0.408248 0.816497 -0.408248
vn -0.131519 -0.878450 0.459378
vn 0.151710 -0.430969 0.889522
vn 0.408248 -0.408248 0.816497
vn 0.121574 0.690722 0.712828
vn 0.019106 0.726659 -0.686733
vn 0.019106 -0.726659 -0.686733
vn -0.522176 -0.772434 0.361495
vn -0.408248 -0.408248 0.816497
vn -0.702501 0.519590 0.486331
vn -0.408248 0.408248 0.816497
vn 0.505846 0.778566 0.371422
vn 0.408248 0.408248 0.816497
vn -0.202639 0.676737 0.707788
vn 0.684968 -0.527130 0.502944
vn -0.019111 0.726659 0.686732
vn -0.019111 -0.726659 0.686732
# 28 normals

usemtl wire_214229166
f 1/1/1 2/2/2 3/3/3 4/4/4
f 5/5/5 2/6/2 1/7/1 6/8/6
f 7/9/7 6/10/6 1/11/1 4/12/4
f 7/13/7 4/14/4 3/15/3 8/16/8
f 9/17/9 10/18/10 6/19/6 7/20/7
f 11/21/6 12/22/5 9/23/9 13/24/11
f 14/25/12 15/26/7 11/27/6 13/28/11
f 16/29/8 15/30/7 14/31/12 10/32/10
f 9/33/9 12/34/5 16/35/8 10/36/10
f 16/37/8 12/38/5 11/39/6 15/40/7
f 17/41/13 18/42/14 2/43/2 19/44/15
f 18/45/14 20/46/16 21/47/17 22/48/18
f 23/49/19 24/50/20 18/51/14 22/52/18
f 25/53/21 26/54/22 24/55/20 23/56/19
f 27/57/23 28/58/24 29/59/25 21/60/17
f 27/61/23 30/62/26 19/63/15 28/64/24
f 27/65/23 31/66/27 32/67/28 30/68/26
f 25/69/21 23/70/19 32/67/28 31/66/27
f 29/71/25 17/72/13 22/48/18 21/47/17
f 6/19/6 10/18/10 14/73/12 5/74/5
f 14/73/12 13/75/11 8/76/8 5/74/5
f 13/75/11 9/17/9 7/20/7 8/76/8
f 2/43/2 18/42/14 24/77/20 3/78/3
f 24/77/20 26/79/22 8/80/8 3/78/3
f 26/79/22 20/81/16 5/82/5 8/80/8
f 29/83/25 28/84/24 5/82/5 20/81/16
f 28/84/24 19/44/15 2/43/2 5/82/5
f 18/42/14 17/41/13 29/83/25 20/81/16
f 30/85/26 32/86/28 17/87/13 19/88/15
f 32/86/28 23/49/19 22/52/18 17/87/13
f 25/89/21 31/90/27 20/91/16 26/92/22
f 31/90/27 27/57/23 21/60/17 20/91/16

# 32 faces
