# Wavefront Obj file
# 
# verts: 123 uv-s: 281
mtllib kristal.mtl

g Box005
#pivot 0.000000 0.000000 0.000000

v -2.637600 1.345200 -0.016100
v -4.274100 6.425900 0.990000
v -4.239200 7.577700 -0.962200
v -3.865600 3.462600 -2.487100
v -1.802300 0.706500 0.327000
v -4.612800 11.692700 0.562600
v -4.204300 8.729400 -2.914500
v -2.094900 2.108600 -1.759800
v -1.981000 1.907500 -1.522800
v -1.947800 1.751800 -1.291700
v -2.175900 4.821500 1.851900
v -1.805000 1.083200 -0.299300
v -1.791100 1.075900 -0.299300
v -4.410800 8.373200 1.028300
v -4.603100 12.013600 0.018600
v -2.748600 3.786900 -3.994900
v -2.388000 2.626200 -2.369900
v -2.388000 3.149000 -3.242500
v -2.388000 -0.845300 -2.369900
v -1.393300 -0.845300 -0.299300
v -0.216100 -0.081900 0.270000
v -0.175100 0.000400 0.308100
v -0.011700 0.328600 0.459700
v -1.039600 0.686200 -0.299300
v -0.629300 0.457500 -0.272600
v -0.632500 0.475100 -0.299300
v -2.549500 8.936500 3.376800
v -2.934300 14.710800 3.137400
v -2.388000 7.340500 -2.168500
v -2.388000 6.880900 -2.369900
v -2.305700 6.087800 -2.656200
v -2.388000 3.511100 -3.846800
v -2.479700 11.239900 -0.527800
v -2.388000 3.813600 -4.440500
v -2.388000 3.813600 -3.714200
v -0.317400 -0.845300 -0.299300
v -0.077700 3.217000 2.713800
v 0.213300 0.211700 0.596500
v 0.262900 0.109000 0.564800
v -0.605600 0.325000 -0.072000
v -0.641600 0.282800 0.029600
v -0.317400 0.013700 -0.299300
v -0.716400 0.284100 -0.299300
v -0.462500 0.112100 -0.299300
v -2.146900 4.555500 -3.209200
v -2.169800 7.825700 -1.793000
v -2.388000 7.682200 -2.018700
v -2.388000 8.472400 -2.369900
v -1.793200 5.643700 -4.440500
v -2.388000 -0.845300 -3.194200
v -0.317400 -0.845300 -2.369900
v 0.248600 0.263700 0.626800
v 0.063100 2.783900 0.821000
v -0.042800 4.368700 0.761500
v 0.050600 3.009300 0.769000
v 0.051800 3.008700 0.749200
v 0.060000 3.005100 0.613800
v -0.024000 -0.185200 -0.299300
v -0.425100 8.200300 2.766800
v -0.416500 8.483700 2.286300
v -2.118500 10.390400 0.577400
v -2.108100 7.647300 -1.631900
v -1.039400 7.900300 -0.326700
v -0.826900 8.472400 -0.299300
v -1.031800 7.861100 -0.299300
v -0.317400 8.472400 -4.440500
v -0.317400 3.813600 -4.440500
v 0.636400 -0.845300 -0.299300
v 0.070400 3.000400 0.441100
v 0.091100 2.893600 0.214800
v 0.680300 -0.662400 -0.299300
v -0.009600 -0.194900 -0.299300
v -0.015300 5.279000 -0.781600
v -0.317400 5.829200 -0.299300
v -0.836200 7.305000 -0.299300
v -0.317400 8.472400 -0.299300
v -0.317400 13.706000 -2.369900
v -0.317400 -0.845300 -4.440500
v 1.753200 -0.845300 -2.369900
v 0.057700 3.813600 -0.299300
v -0.007200 5.172900 -0.794500
v 0.138000 2.650800 -0.299300
v 1.264800 -0.475200 -1.299800
v 1.753200 0.314700 -1.854300
v 1.519300 -0.393600 -1.735500
v 1.027800 -0.551100 -0.894200
v 0.745800 8.472400 -1.996700
v 0.259600 8.472400 -4.440500
v 1.753200 3.813600 -4.440500
v 0.319900 3.263100 -0.299300
v 0.718700 3.813600 -0.299300
v 0.907800 4.064500 -0.390700
v 1.522500 4.880400 -0.687900
v 1.065100 4.273300 -0.466700
v 1.753200 3.813600 -2.369900
v 1.753200 3.813600 -1.795700
v 1.753200 3.208900 -1.872200
v 1.753200 2.048700 -2.019100
v 1.753200 2.397700 -1.974900
v 1.753200 0.981700 -2.154200
v 1.753200 8.472400 -2.369900
v 1.753200 -0.845300 -3.372600
v 1.529600 4.847800 -1.071400
v 1.673500 4.182500 -1.802700
v -0.683900 0.100400 -0.022000
v -0.193500 -0.388500 0.246500
v 1.553100 -1.074700 -0.606700
v 1.285700 -1.356300 0.187000
v 1.193100 1.657400 1.439500
v 1.790200 -0.825100 -1.310300
v 2.425000 0.429300 2.113800
v 2.939700 0.971100 0.586300
v 3.454400 1.513000 -0.941100
v 2.579700 3.703200 2.632500
v 0.653700 3.844800 0.795100
v 4.326200 3.017000 1.779400
v 4.199600 2.883700 2.155300
v 1.862500 5.473200 0.430800
v 3.580700 4.302000 0.442300
v 2.222500 2.741100 -1.615400
v 4.651900 6.543300 2.445200
v 3.609000 4.787000 -0.422400
v 2.005900 5.624200 0.005200
# 123 positions

vt 0.625482 0.411194
vt 0.445513 0.375556
vt 0.404714 0.444707
vt 0.550479 0.498722
vt 0.005000 0.280661
vt 0.062968 0.100693
vt 0.092556 0.078069
vt 0.258952 0.390696
vt 0.363918 0.513862
vt 0.598440 0.472960
vt 0.605564 0.464565
vt 0.611079 0.456379
vt 0.079322 0.223830
vt 0.158509 0.247013
vt 0.170662 0.276601
vt 0.215846 0.252167
vt 0.180694 0.247108
vt 0.180694 0.246616
vt 0.376536 0.374200
vt 0.247585 0.409965
vt 0.538992 0.552131
vt 0.580106 0.494571
vt 0.561587 0.525480
vt 0.703074 0.494571
vt 0.703074 0.421226
vt 0.634762 0.421226
vt 0.012316 0.013079
vt 0.010848 0.016285
vt 0.005000 0.029063
vt 0.069089 0.039868
vt 0.155983 0.064683
vt 0.502344 0.345026
vt 0.504800 0.375223
vt 0.504308 0.375481
vt 0.518891 0.307170
vt 0.531420 0.361419
vt 0.179748 0.205463
vt 0.180694 0.219996
vt 0.180694 0.205576
vt 0.356583 0.291011
vt 0.152045 0.299491
vt 0.065095 0.934883
vt 0.116658 0.759809
vt 0.052321 0.809007
vt 0.052321 0.825287
vt 0.049406 0.853380
vt 0.548761 0.546885
vt 0.130785 0.643477
vt 0.055570 0.670883
vt 0.538046 0.567915
vt 0.648903 0.838416
vt 0.638188 0.833719
vt 0.638188 0.859446
vt 0.709525 0.508169
vt 0.709525 0.546280
vt 0.782869 0.581514
vt 0.153645 0.166995
vt 0.163953 0.060542
vt 0.165710 0.056904
vt 0.172642 0.204623
vt 0.169043 0.205898
vt 0.160528 0.190826
vt 0.557001 0.307170
vt 0.557001 0.337597
vt 0.542868 0.347176
vt 0.551862 0.341083
vt 0.545840 0.353941
vt 0.071672 0.547936
vt 0.043781 0.907657
vt 0.052321 0.933937
vt 0.052321 0.944652
vt 0.044592 0.791820
vt 0.052321 0.796903
vt 0.529538 0.786101
vt 0.513258 0.778967
vt 0.501155 0.773661
vt 0.473164 0.786101
vt 0.573362 0.859446
vt 0.611909 0.815831
vt 0.557631 0.796242
vt 0.703074 0.523769
vt 0.782869 0.508169
vt 0.481897 0.705960
vt 0.371805 0.629838
vt 0.377285 0.632035
vt 0.466556 0.638914
vt 0.522692 0.636806
vt 0.474540 0.637072
vt 0.474518 0.636370
vt 0.474391 0.631574
vt 0.066089 0.369592
vt 0.567394 0.330552
vt 0.052458 0.574129
vt 0.141339 0.343514
vt 0.715981 0.301030
vt 0.838927 0.430858
vt 0.618351 0.400711
vt 0.645146 0.546320
vt 0.766084 0.591136
vt 0.735993 0.630285
vt 0.638827 0.552027
vt 0.496071 0.765666
vt 0.493429 0.713727
vt 0.502391 0.759960
vt 0.473164 0.712756
vt 0.494817 0.712756
vt 0.207615 0.563653
vt 0.259891 0.663852
vt 0.280960 0.563653
vt 0.280960 0.893705
vt 0.280960 0.728677
vt 0.207615 0.728677
vt 0.812068 0.581514
vt 0.709525 0.474384
vt 0.474224 0.625457
vt 0.470441 0.617441
vt 0.668454 0.690817
vt 0.590787 0.307170
vt 0.592342 0.313649
vt 0.567904 0.330208
vt 0.658415 0.707838
vt 0.889030 0.720965
vt 0.557632 0.389531
vt 0.623619 0.302893
vt 0.637623 0.253846
vt 0.785262 0.084178
vt 0.882429 0.162436
vt 0.794224 0.130411
vt 0.669127 0.168957
vt 0.701372 0.114298
vt 0.720861 0.131382
vt 0.792835 0.131382
vt 0.773137 0.131382
vt 0.671811 0.809615
vt 0.653763 0.809615
vt 0.646505 0.787962
vt 0.653434 0.768264
vt 0.287779 0.786101
vt 0.207615 0.378269
vt 0.207615 0.893705
vt 0.856214 0.508169
vt 0.782869 0.434825
vt 0.503029 0.599230
vt 0.551179 0.581689
vt 0.554937 0.582146
vt 0.461841 0.599230
vt 0.814889 0.222969
vt 0.338213 0.151690
vt 0.331734 0.151690
vt 0.331734 0.078345
vt 0.344844 0.116250
vt 0.372823 0.096608
vt 0.347734 0.100817
vt 0.097224 0.005000
vt 0.076099 0.040810
vt 0.084664 0.026293
vt 0.110032 0.546325
vt 0.180978 0.546325
vt 0.180978 0.452698
vt 0.160820 0.433209
vt 0.617950 0.248998
vt 0.504834 0.292039
vt 0.501076 0.291582
vt 0.671811 0.715988
vt 0.671811 0.995000
vt 0.187177 0.563653
vt 0.134271 0.728677
vt 0.297750 0.480752
vt 0.311876 0.500252
vt 0.288462 0.500252
vt 0.291307 0.459063
vt 0.318575 0.509139
vt 0.340348 0.538040
vt 0.364272 0.716257
vt 0.356876 0.718949
vt 0.335371 0.726784
vt 0.312836 0.665276
vt 0.286163 0.548401
vt 0.496762 0.078345
vt 0.496762 0.098684
vt 0.475342 0.095974
vt 0.434245 0.090771
vt 0.446608 0.092336
vt 0.396450 0.085985
vt 0.048629 0.092888
vt 0.108754 0.055227
vt 0.121974 0.019543
vt 0.745155 0.809615
vt 0.847170 0.078345
vt 0.661786 0.078345
vt 0.661786 0.005000
vt 0.134271 0.893705
vt 0.818387 0.434825
vt 0.661786 0.091564
vt 0.534550 0.137925
vt 0.533395 0.124340
vt 0.509829 0.098436
vt 0.331734 0.042827
vt 0.496762 0.005000
vt 0.052206 0.006828
vt 0.045745 0.005000
vt 0.044250 0.008599
vt 0.045699 0.016650
vt 0.039557 0.015705
vt 0.038934 0.016650
vt 0.149543 0.039281
vt 0.150195 0.053057
vt 0.148742 0.050142
vt 0.132172 0.056599
vt 0.133670 0.063060
vt 0.024333 0.125192
vt 0.014511 0.133035
vt 0.024333 0.134186
vt 0.005000 0.115664
vt 0.024333 0.120052
vt 0.024333 0.109660
vt 0.024333 0.109150
vt 0.024333 0.084712
vt 0.035222 0.053796
vt 0.045406 0.072403
vt 0.201939 0.005000
vt 0.165203 0.062384
vt 0.198659 0.111751
vt 0.007108 0.063267
vt 0.059773 0.064008
vt 0.060145 0.045397
vt 0.242296 0.068250
vt 0.158632 0.151654
vt 0.507539 0.221120
vt 0.517514 0.193006
vt 0.589981 0.235264
vt 0.075207 0.054993
vt 0.526355 0.168083
vt 0.609176 0.181161
vt 0.396074 0.183059
vt 0.376883 0.237166
vt 0.313633 0.168915
vt 0.247775 0.184218
vt 0.179553 0.189233
vt 0.158190 0.159638
vt 0.541640 0.153022
vt 0.566730 0.148813
vt 0.415270 0.128956
vt 0.468544 0.225321
vt 0.305155 0.155189
vt 0.372054 0.674253
vt 0.314373 0.687157
vt 0.401671 0.675879
vt 0.401650 0.675178
vt 0.514062 0.177959
vt 0.458772 0.105071
vt 0.463823 0.238636
vt 0.321177 0.284820
vt 0.222371 0.246915
vt 0.373160 0.713019
vt 0.401965 0.686793
vt 0.392660 0.713019
vt 0.401798 0.680675
vt 0.593453 0.248905
vt 0.321713 0.229608
vt 0.369075 0.256015
vt 0.399705 0.255012
vt 0.309025 0.702233
vt 0.405748 0.694809
vt 0.414349 0.713019
vt 0.441963 0.304125
vt 0.725148 0.199534
vt 0.787359 0.301110
vt 0.662450 0.277526
vt 0.276468 0.615803
vt 0.336526 0.740368
vt 0.211833 0.005000
vt 0.260945 0.077470
vt 0.277569 0.060899
vt 0.277569 0.039480
vt 0.280392 0.026413
vt 0.709717 0.679541
vt 0.608140 0.642599
vt 0.623287 0.585814
vt 0.585152 0.568943
vt 0.559247 0.574040
# 281 texture coordinates

vn -0.809291 -0.587207 -0.015357
vn -0.880854 -0.219825 0.419252
vn -0.991950 -0.125193 -0.019005
vn -0.722558 -0.581780 -0.373418
vn -0.539487 -0.826978 0.158308
vn -0.976759 0.026549 0.212691
vn -0.450385 0.308007 -0.838025
vn -0.857511 -0.513905 -0.024012
vn -0.917157 -0.398255 -0.014703
vn -0.600970 -0.700235 -0.385365
vn -0.520312 -0.319804 0.791834
vn -0.710921 -0.702846 0.024458
vn -0.462353 -0.886005 0.034989
vn -0.805492 -0.104613 0.583300
vn -0.796652 0.463330 -0.388163
vn 0.249044 0.103844 -0.962909
vn -0.973001 -0.230549 -0.010764
vn -0.704284 -0.608958 -0.364904
vn -0.772845 -0.609696 0.176014
vn -0.458800 -0.295099 0.838104
vn -0.553663 -0.449228 0.701179
vn -0.430028 -0.193255 0.881889
vn -0.383682 -0.341174 0.858131
vn -0.394500 -0.760806 0.515309
vn -0.859179 -0.468028 -0.206790
vn -0.792628 -0.255708 0.553492
vn -0.454556 -0.109379 0.883977
vn 0.207844 0.861126 0.463964
vn 0.269233 0.386602 -0.882073
vn -0.400204 0.318473 -0.859309
vn -0.343874 0.287037 -0.894070
vn -0.815680 -0.200222 -0.542750
vn 0.536617 0.361388 -0.762523
vn -0.857809 0.008778 -0.513893
vn -0.416120 0.491598 -0.764968
vn 0.000000 -0.600000 0.800000
vn 0.592635 -0.248168 0.766287
vn -0.523088 -0.379593 0.763078
vn -0.019704 -0.431909 0.901702
vn -0.986919 -0.057743 -0.150520
vn -0.849282 -0.513698 -0.121798
vn -0.415901 -0.613669 0.671145
vn -0.562088 0.001992 0.827075
vn -0.559485 -0.825681 0.072297
vn -0.742840 0.352947 -0.568873
vn -0.010201 0.978294 0.206971
vn -0.890962 0.435400 -0.128893
vn -0.976732 0.213145 -0.023724
vn -0.782837 0.199144 -0.589498
vn -0.462920 -0.689762 -0.556717
vn 0.000000 -1.000000 0.000000
vn 0.123303 -0.225565 0.966394
vn 0.512041 0.104720 0.852554
vn 0.991650 0.128840 0.005463
vn 0.543720 0.573976 0.612308
vn -0.446984 0.893068 -0.051328
vn 0.852831 0.520825 0.037700
vn -0.279771 -0.412816 0.866782
vn 0.742508 0.142714 0.654458
vn 0.973861 0.081577 -0.211992
vn 0.947826 0.219697 -0.230997
vn 0.659969 0.730399 -0.175947
vn -0.345197 0.716705 0.605948
vn -0.429580 0.260030 0.864781
vn 0.080259 0.308920 0.947695
vn -0.243060 0.177801 -0.953577
vn -0.088133 -0.044165 -0.995129
vn 0.309233 -0.792359 0.525873
vn -0.742615 0.660524 -0.110593
vn 0.926987 0.364698 -0.087696
vn -0.335162 -0.693456 0.637797
vn 0.933753 0.101653 0.343180
vn 0.795410 0.191639 0.574977
vn 0.593734 0.208766 0.777108
vn 0.345053 -0.081881 0.935005
vn 0.005762 0.999943 0.009036
vn -0.015826 -0.760908 -0.648667
vn 0.800374 -0.578457 0.157445
vn 0.539738 0.222792 0.811817
vn 0.758561 0.169253 0.629237
vn 0.065876 0.380092 0.922600
vn 0.481366 -0.868464 0.118559
vn 0.922183 -0.254765 -0.290986
vn 0.556085 -0.731031 -0.395428
vn -0.785504 -0.333470 -0.521326
vn 0.804734 -0.047279 0.591751
vn 0.350760 0.208375 -0.912988
vn 0.685231 0.011023 -0.728242
vn -0.840679 0.416212 0.346448
vn -0.565145 0.529078 0.632999
vn -0.745002 0.635349 0.203234
vn -0.237934 0.752274 0.614387
vn -0.811131 0.577557 -0.092167
vn 0.988650 0.033036 0.146560
vn 0.875767 0.119140 -0.467801
vn 0.908311 0.052542 -0.414983
vn 0.785521 0.077739 -0.613933
vn 0.897226 -0.062038 -0.437192
vn 0.989453 -0.047856 0.136723
vn 0.855497 -0.419032 -0.304199
vn 0.223985 0.887810 -0.402026
vn 0.816071 0.379662 -0.435757
vn -0.942492 -0.251500 0.220131
vn -0.674441 -0.720001 0.163485
vn 0.080706 -0.947639 -0.308978
vn 0.003813 -0.808161 0.588949
vn -0.519834 -0.112928 0.846770
vn 0.143414 -0.835383 -0.530629
vn 0.368237 -0.611709 0.700153
vn 0.879057 -0.476480 -0.015058
vn 0.858497 -0.270211 -0.435855
vn -0.385426 0.139227 0.912175
vn -0.671774 0.391431 0.628889
vn 0.839114 -0.500156 -0.213849
vn 0.663216 -0.299938 0.685698
vn -0.740644 0.649640 0.171506
vn 0.797332 -0.358913 -0.485225
vn 0.665964 0.047697 -0.744457
vn 0.513610 0.740779 0.432957
vn 0.597474 0.105205 -0.794957
vn -0.390266 0.874711 -0.287355
# 121 normals

usemtl wire_087225198
f 1/1/1 2/2/2 3/3/3
f 3/3/3 4/4/4 1/1/1
f 2/5/2 1/6/1 5/7/5
f 6/8/6 3/3/3 2/2/2
f 4/4/4 3/3/3 7/9/7
f 8/10/8 9/11/9 10/12/10 4/4/4
f 1/1/1 4/4/4 10/12/10
f 5/7/5 11/13/11 2/5/2
f 5/14/5 1/15/1 10/16/10 12/17/12
f 13/18/13 5/14/5 12/17/12
f 2/2/2 14/19/14 6/8/6
f 3/3/3 6/8/6 15/20/15
f 7/9/7 16/21/16 4/4/4
f 15/20/15 7/9/7 3/3/3
f 17/22/17 8/10/8 4/4/4 18/23/18
f 19/24/19 20/25/20 9/11/9 8/10/8
f 17/22/17 19/24/19 8/10/8
f 12/26/12 10/12/10 9/11/9 20/25/20
f 21/27/21 22/28/22 23/29/23 5/30/5
f 11/13/11 5/7/5 23/31/23
f 14/19/14 2/2/2 11/32/11
f 13/33/13 12/34/12 20/35/20 24/36/24
f 25/37/25 5/14/5 13/18/13 24/38/24
f 25/37/25 24/38/24 26/39/26
f 6/8/6 14/19/14 27/40/27
f 15/20/15 6/8/6 28/41/28
f 16/42/16 7/43/7 29/44/29 30/45/30
f 16/42/16 30/45/30 31/46/31
f 18/23/18 4/4/4 16/21/16 32/47/32
f 7/43/7 15/48/15 33/49/33
f 17/22/17 18/23/18 32/47/32 34/50/34
f 32/51/32 35/52/35 34/53/34
f 19/24/19 17/22/17 34/50/34
f 36/54/36 20/55/20 19/56/19
f 37/57/37 11/13/11 23/31/23 38/58/38
f 39/59/39 37/57/37 38/58/38
f 5/14/5 25/37/25 40/60/40 41/61/41
f 21/62/21 5/14/5 41/61/41
f 11/32/11 27/40/27 14/19/14
f 20/35/20 36/63/36 42/64/42 43/65/43
f 42/64/42 44/66/44 43/65/43
f 20/35/20 43/65/43 26/67/26 24/36/24
f 27/40/27 28/41/28 6/8/6
f 28/68/28 33/49/33 15/48/15
f 16/42/16 31/46/31 45/69/45 35/70/35
f 32/71/32 16/42/16 35/70/35
f 33/49/33 46/72/46 47/73/47 29/44/29
f 33/49/33 29/44/29 7/43/7
f 30/74/30 29/75/29 47/76/47 48/77/48
f 48/77/48 49/78/49 45/79/45 31/80/31
f 30/74/30 48/77/48 31/80/31
f 34/50/34 50/81/50 19/24/19
f 49/78/49 34/53/34 35/52/35 45/79/45
f 19/56/19 51/82/51 36/54/36
f 37/83/37 39/84/39 52/85/52 53/86/53
f 54/87/54 37/83/37 53/86/53 55/88/55
f 54/87/54 55/88/55 56/89/56 57/90/57
f 27/91/27 11/13/11 37/57/37
f 42/64/42 36/63/36 58/92/58
f 28/93/28 27/91/27 59/94/59
f 33/95/33 28/96/28 60/97/60
f 46/98/46 33/99/33 61/100/61 62/101/62
f 48/77/48 47/76/47 46/102/46 63/103/63
f 46/102/46 62/104/62 63/103/63
f 64/105/64 48/77/48 63/103/63 65/106/65
f 66/107/66 49/108/49 48/109/48
f 50/110/50 34/111/34 67/112/67
f 51/82/51 19/56/19 50/113/50
f 34/111/34 49/108/49 66/107/66
f 68/114/68 36/54/36 51/82/51
f 69/115/69 70/116/70 54/87/54 57/90/57
f 37/83/37 54/87/54 60/117/60
f 37/57/37 59/94/59 27/91/27
f 36/63/36 68/118/68 71/119/71 72/120/42
f 36/63/36 72/120/42 58/92/58
f 59/121/59 60/117/60 28/122/28
f 60/123/60 61/124/61 33/125/33
f 62/126/62 61/127/61 63/128/63
f 54/129/54 73/130/72 74/131/73 61/127/61
f 65/132/65 63/128/63 61/127/61 75/133/74
f 74/131/73 75/133/74 61/127/61
f 76/134/75 64/135/64 65/136/65 75/137/74
f 77/138/76 48/77/48 64/105/64
f 48/109/48 77/139/76 66/107/66
f 67/112/67 78/140/77 50/110/50
f 66/107/66 67/112/67 34/111/34
f 50/113/50 78/141/77 51/82/51
f 51/82/51 79/142/78 68/114/68
f 80/143/79 81/144/80 73/145/72 54/87/54
f 82/146/81 80/143/79 54/87/54 70/116/70
f 60/117/60 59/121/59 37/83/37
f 61/127/61 60/147/60 54/129/54
f 71/148/71 68/149/68 79/150/78 83/151/82
f 79/150/78 84/152/83 85/153/84 83/151/82
f 71/154/71 83/155/82 86/156/85
f 87/157/86 76/158/75 74/159/73 73/160/72
f 87/161/86 73/162/72 81/163/80
f 74/164/73 76/134/75 75/137/74
f 64/135/64 76/134/75 77/165/76
f 88/166/87 66/107/66 77/139/76
f 78/140/77 67/112/67 89/167/88
f 67/112/67 66/107/66 88/166/87
f 79/142/78 51/82/51 78/141/77
f 90/168/89 91/169/90 80/170/79 82/171/81
f 80/170/79 91/169/90 92/172/91 93/173/92
f 92/174/91 94/175/93 93/176/92
f 80/170/79 93/173/92 87/177/86 81/178/80
f 95/179/94 96/180/95 97/181/96 98/182/96
f 97/181/96 99/183/97 98/182/96
f 95/179/94 98/182/96 100/184/98 79/150/78
f 79/150/78 100/184/98 84/152/83
f 76/185/75 87/186/86 101/187/99
f 101/188/99 77/165/76 76/134/75
f 77/189/76 101/190/99 88/191/87
f 89/167/88 102/192/100 78/140/77
f 88/166/87 89/167/88 67/112/67
f 78/141/77 102/193/100 79/142/78
f 87/194/86 93/195/92 103/196/101 104/197/102
f 87/194/86 104/197/102 96/180/95 95/179/94
f 95/179/94 79/150/78 102/198/100
f 95/179/94 101/190/99 87/194/86
f 89/199/88 88/191/87 101/190/99
f 102/198/100 89/199/88 95/179/94
f 101/190/99 95/179/94 89/199/88
f 105/200/103 41/201/41 40/202/40
f 43/203/43 105/200/103 40/202/40 25/204/25
f 43/203/43 25/204/25 26/205/26
f 106/206/104 22/207/22 21/208/21 105/209/103
f 41/210/41 105/209/103 21/208/21
f 44/211/44 105/212/103 43/213/43
f 106/214/104 105/212/103 44/211/44 42/215/42
f 106/214/104 42/215/42 58/216/58 72/217/42
f 38/58/38 23/31/23 22/207/22 106/206/104
f 106/214/104 72/217/42 71/218/71 107/219/105
f 71/218/71 86/220/85 107/219/105
f 39/59/39 38/58/38 106/206/104 108/221/106
f 52/222/52 39/59/39 108/221/106 109/223/107
f 107/219/105 108/224/106 106/214/104
f 83/225/82 110/226/108 107/219/105 86/220/85
f 108/221/106 111/227/109 109/223/107
f 52/222/52 109/223/107 53/228/53
f 108/229/106 107/230/105 112/231/110
f 85/232/84 110/226/108 83/225/82
f 107/230/105 110/233/108 113/234/111
f 112/235/110 111/236/109 108/237/106
f 114/238/112 109/223/107 111/227/109
f 53/228/53 109/223/107 115/239/113 55/240/55
f 113/234/111 112/231/110 107/230/105
f 113/234/111 110/233/108 85/241/84 84/242/83
f 113/243/111 84/152/83 100/184/98
f 111/236/109 112/235/110 116/244/114
f 111/227/109 117/245/115 114/238/112
f 109/223/107 114/238/112 115/239/113
f 115/246/113 118/247/116 56/248/56 55/249/55
f 112/235/110 113/243/111 119/250/117
f 98/182/96 120/251/118 113/243/111 100/184/98
f 116/244/114 117/252/115 111/236/109
f 119/250/117 116/244/114 112/235/110
f 121/253/119 114/238/112 117/245/115
f 118/254/116 115/239/113 114/238/112
f 118/247/116 92/174/91 91/255/90 69/256/69
f 91/255/90 90/257/89 69/256/69
f 118/247/116 69/256/69 57/258/57 56/248/56
f 119/250/117 113/243/111 120/251/118
f 99/183/97 120/251/118 98/182/96
f 117/252/115 116/244/114 121/259/119
f 116/260/114 119/261/117 122/262/120
f 114/238/112 121/253/119 118/254/116
f 118/247/116 123/263/121 94/175/93 92/174/91
f 70/264/70 69/256/69 90/257/89 82/265/81
f 120/266/118 122/262/120 119/261/117
f 97/181/96 120/251/118 99/183/97
f 122/267/120 121/268/119 116/269/114
f 123/263/121 118/247/116 121/270/119
f 93/176/92 94/175/93 123/263/121 103/271/101
f 122/272/120 120/273/118 97/274/96 96/275/95
f 122/272/120 96/275/95 104/276/102
f 121/277/119 122/278/120 123/279/121
f 103/280/101 123/279/121 122/278/120 104/281/102

# 179 faces
