# Wavefront Obj file
# 
# verts: 152 uv-s: 456
mtllib wall4house.mtl

g Box016

v -44.944302 0.000000 1.755000
v -44.944302 0.000000 -2.302400
v 50.161999 0.000000 -2.302400
v 50.161999 0.000000 1.755000
v -44.944302 38.302200 1.755000
v 50.161999 38.302200 1.755000
v 50.161999 38.302200 -2.302400
v -44.944302 38.302200 -2.302400
v 20.534100 31.984400 1.755000
v 23.033001 32.006599 1.755000
v 23.465401 31.631001 1.755000
v 23.033001 32.006599 -2.302400
v 20.534100 31.984400 -2.302400
v 23.465401 31.631001 -2.302400
v -16.244101 31.984400 -4.054800
v -16.244101 31.984400 -2.302400
v -13.745300 32.006599 -2.302400
v -13.745300 32.006599 -4.054800
v -15.584200 12.687700 -4.054800
v -15.584200 12.687700 -2.302400
v -13.085400 12.709900 -4.054800
v -13.085400 12.709900 -2.302400
v -15.584200 12.687700 2.822500
v -15.584200 12.687700 1.755000
v -13.085400 12.709900 1.755000
v -13.085400 12.709900 2.822500
v -16.244101 31.984400 1.755000
v -16.244101 31.984400 2.822500
v -13.745300 32.006599 1.755000
v -13.745300 32.006599 2.822500
v 23.465401 23.829599 -4.054800
v 23.465401 23.829599 -2.302400
v 23.465401 22.513901 -2.302400
v 23.465401 22.513901 -4.054800
v 23.465401 22.513901 2.822500
v 23.465401 22.513901 1.755000
v 23.465401 23.829599 1.755000
v 23.465401 23.829599 2.822500
v -13.646999 29.131800 -4.054800
v -13.646999 29.131800 -0.629500
v -13.465700 23.829599 -0.629500
v -13.465700 23.829599 -4.054800
v -13.646999 29.131800 2.822500
v -13.465700 23.829599 2.822500
v -13.465700 23.829599 0.182000
v -13.646999 29.131800 0.182000
v -13.732500 31.631001 -2.302400
v -13.732500 31.631001 -4.054800
v -13.732500 31.631001 2.822500
v -13.732500 31.631001 1.755000
v 23.465401 29.131800 2.822500
v 23.465401 29.131800 1.755000
v 23.465401 31.631001 2.822500
v 23.465401 31.631001 -4.054800
v 23.465401 29.131800 -2.302400
v 23.465401 29.131800 -4.054800
v -13.409700 22.191401 -0.629500
v -13.409700 22.191401 -4.054800
v -13.420700 22.513901 -4.054800
v -13.420700 22.513901 -0.629500
v -13.409700 22.191401 0.182000
v -13.420700 22.513901 0.182000
v -13.420700 22.513901 2.822500
v -13.409700 22.191401 2.822500
v 23.465401 20.875799 2.822500
v 23.465401 20.875799 1.755000
v 23.465401 22.191401 1.755000
v 23.465401 22.191401 2.822500
v 23.465401 22.191401 -4.054800
v 23.465401 22.191401 -2.302400
v 23.465401 20.875799 -2.302400
v 23.465401 20.875799 -4.054800
v -13.126200 13.902200 -4.054800
v -13.126200 13.902200 -2.302400
v -13.126200 13.902200 1.755000
v -13.126200 13.902200 2.822500
v -13.364700 20.875799 0.182000
v -13.364700 20.875799 2.822500
v -13.211700 16.401400 2.822500
v -13.211700 16.401400 0.182000
v -13.211700 16.401400 -4.054800
v -13.364700 20.875799 -4.054800
v -13.364700 20.875799 -0.629500
v -13.211700 16.401400 -0.629500
v 20.546200 31.631001 -4.054800
v 20.546200 31.631001 -2.302400
v 20.631701 29.131800 -4.054800
v 20.631701 29.131800 -0.629500
v 20.813000 23.829599 -0.629500
v 20.858000 22.513901 -4.054800
v 20.858000 22.513901 -0.629500
v 20.813000 23.829599 -4.054800
v 21.152500 13.902200 -4.054800
v 21.152500 13.902200 -2.302400
v 21.066999 16.401400 -0.629500
v 21.066999 16.401400 -4.054800
v 21.066999 16.401400 2.822500
v 21.066999 16.401400 0.182000
v 21.152500 13.902200 2.822500
v 21.152500 13.902200 1.755000
v 20.914000 20.875799 0.182000
v 20.914000 20.875799 -0.629500
v 20.914000 20.875799 -4.054800
v 20.868999 22.191401 -4.054800
v 20.868999 22.191401 -0.629500
v 20.868999 22.191401 2.822500
v 20.868999 22.191401 0.182000
v 20.914000 20.875799 2.822500
v 20.858000 22.513901 0.182000
v 20.546200 31.631001 2.822500
v 20.546200 31.631001 1.755000
v 20.631701 29.131800 2.822500
v 20.631701 29.131800 0.182000
v 20.813000 23.829599 0.182000
v 20.858000 22.513901 2.822500
v 20.813000 23.829599 2.822500
v 23.368601 22.191401 2.822500
v 23.368601 22.191401 1.755000
v 23.413601 20.875799 1.755000
v 23.413601 20.875799 2.822500
v 23.357599 22.513901 1.755000
v 23.357599 22.513901 2.822500
v 23.312599 23.829599 2.822500
v 23.312599 23.829599 1.755000
v 23.413601 20.875799 -4.054800
v 23.413601 20.875799 -2.302400
v 23.368601 22.191401 -4.054800
v 23.368601 22.191401 -2.302400
v 23.045799 31.631001 -2.302400
v 23.045799 31.631001 -4.054800
v 23.131300 29.131800 -2.302400
v 23.131300 29.131800 -4.054800
v 23.045799 31.631001 1.755000
v 23.045799 31.631001 2.822500
v 23.131300 29.131800 1.755000
v 23.131300 29.131800 2.822500
v 23.357599 22.513901 -2.302400
v 23.357599 22.513901 -4.054800
v 23.312599 23.829599 -2.302400
v 23.312599 23.829599 -4.054800
v 23.033001 32.006599 2.822500
v 20.534100 31.984400 2.822500
v 21.194000 12.687700 1.755000
v 21.194000 12.687700 2.822500
v 23.692801 12.709900 1.755000
v 23.692801 12.709900 2.822500
v 20.534100 31.984400 -4.054800
v 23.033001 32.006599 -4.054800
v 23.692801 12.709900 -2.302400
v 23.692801 12.709900 -4.054800
v 21.194000 12.687700 -4.054800
v 21.194000 12.687700 -2.302400
# 152 positions

vt 0.691983 0.684141
vt 0.720957 0.684141
vt 0.720957 0.005000
vt 0.691983 0.005000
vt 0.757694 0.005000
vt 0.757694 0.684141
vt 0.728720 0.684141
vt 0.728720 0.005000
vt 0.005000 0.741162
vt 0.005000 0.712189
vt 0.278511 0.712189
vt 0.278511 0.741162
vt 0.590776 0.741162
vt 0.590776 0.712189
vt 0.317265 0.712189
vt 0.317265 0.741162
vt 0.684141 0.278511
vt 0.472572 0.233396
vt 0.490417 0.233555
vt 0.493504 0.230873
vt 0.198724 0.330995
vt 0.216569 0.331153
vt 0.005000 0.286039
vt 0.195637 0.333677
vt 0.320414 0.124051
vt 0.320414 0.111538
vt 0.302570 0.111538
vt 0.302570 0.124051
vt 0.205217 0.341144
vt 0.205217 0.353658
vt 0.343093 0.353658
vt 0.343093 0.341144
vt 0.328286 0.111538
vt 0.328286 0.124051
vt 0.346130 0.124051
vt 0.346130 0.111538
vt 0.346131 0.139366
vt 0.346131 0.131743
vt 0.328286 0.131743
vt 0.328286 0.139366
vt 0.372482 0.201543
vt 0.234607 0.201543
vt 0.234607 0.209166
vt 0.372482 0.209166
vt 0.236444 0.163245
vt 0.254288 0.163245
vt 0.254288 0.155622
vt 0.236444 0.155622
vt 0.284413 0.111538
vt 0.284413 0.124051
vt 0.275018 0.124051
vt 0.275018 0.111538
vt 0.269507 0.194471
vt 0.269507 0.186849
vt 0.278902 0.186849
vt 0.278902 0.194471
vt 0.320250 0.156203
vt 0.320250 0.131743
vt 0.282365 0.131743
vt 0.282365 0.156203
vt 0.353313 0.162969
vt 0.315428 0.162969
vt 0.315428 0.181825
vt 0.353313 0.181825
vt 0.278691 0.164806
vt 0.278691 0.177320
vt 0.281375 0.177320
vt 0.281375 0.164806
vt 0.294232 0.119160
vt 0.294232 0.111538
vt 0.291549 0.111538
vt 0.291549 0.119160
vt 0.286039 0.190798
vt 0.286039 0.183175
vt 0.303885 0.183175
vt 0.303885 0.190798
vt 0.307559 0.162969
vt 0.307559 0.175483
vt 0.289712 0.175483
vt 0.289712 0.162969
vt 0.269507 0.155622
vt 0.269507 0.180082
vt 0.271811 0.180082
vt 0.271811 0.155622
vt 0.218075 0.207541
vt 0.220379 0.207541
vt 0.220379 0.188685
vt 0.218075 0.188685
vt 0.218075 0.222024
vt 0.218075 0.214401
vt 0.227469 0.214401
vt 0.227469 0.222024
vt 0.229306 0.135417
vt 0.229306 0.147930
vt 0.219912 0.147930
vt 0.219912 0.135417
vt 0.228432 0.168136
vt 0.228432 0.155622
vt 0.219912 0.155622
vt 0.219912 0.168136
vt 0.221749 0.111538
vt 0.221749 0.119160
vt 0.230268 0.119160
vt 0.230268 0.111538
vt 0.262902 0.194683
vt 0.262902 0.175827
vt 0.230933 0.175827
vt 0.230933 0.194683
vt 0.236444 0.148855
vt 0.268413 0.148855
vt 0.268413 0.124396
vt 0.236444 0.124396
vt 0.584515 0.569759
vt 0.583904 0.587606
vt 0.602449 0.567236
vt 0.584605 0.567077
vt 0.297060 0.811857
vt 0.297060 0.567077
vt 0.309573 0.567077
vt 0.309573 0.811857
vt 0.821144 0.508298
vt 0.796684 0.508298
vt 0.796684 0.753077
vt 0.821144 0.753077
vt 0.609325 0.811857
vt 0.647188 0.813151
vt 0.647188 0.568372
vt 0.609325 0.567077
vt 0.679706 0.567077
vt 0.655246 0.567077
vt 0.655246 0.811857
vt 0.679706 0.811857
vt 0.765458 0.249779
vt 0.765458 0.005000
vt 0.789917 0.005000
vt 0.789917 0.249779
vt 0.765458 0.501428
vt 0.777971 0.501428
vt 0.777971 0.256649
vt 0.765458 0.256649
vt 0.789917 0.753077
vt 0.765458 0.753077
vt 0.765458 0.508298
vt 0.789917 0.508298
vt 0.804519 0.501428
vt 0.785663 0.501428
vt 0.785663 0.256649
vt 0.804519 0.256649
vt 0.796684 0.005000
vt 0.796684 0.249779
vt 0.804307 0.249779
vt 0.804307 0.005000
vt 0.005000 0.704872
vt 0.023545 0.684502
vt 0.022935 0.702349
vt 0.022844 0.705031
vt 0.686473 0.693076
vt 0.686473 0.937855
vt 0.718424 0.936763
vt 0.718424 0.691983
vt 0.725047 0.936763
vt 0.756999 0.937855
vt 0.756999 0.693076
vt 0.725047 0.691983
vt 0.811379 0.249779
vt 0.835838 0.249779
vt 0.835838 0.005000
vt 0.811379 0.005000
vt 0.811379 0.501428
vt 0.811379 0.256649
vt 0.835838 0.256649
vt 0.835838 0.501428
vt 0.846765 0.753077
vt 0.827911 0.753077
vt 0.827911 0.508298
vt 0.846765 0.508298
vt 0.861460 0.005000
vt 0.842605 0.005000
vt 0.842605 0.249779
vt 0.861460 0.249779
vt 0.844910 0.256728
vt 0.842605 0.256649
vt 0.842605 0.501428
vt 0.844910 0.501507
vt 0.853627 0.265912
vt 0.853627 0.510691
vt 0.855929 0.510613
vt 0.855929 0.265833
vt 0.861249 0.762262
vt 0.853627 0.762262
vt 0.853627 0.517482
vt 0.861249 0.517482
vt 0.005000 0.748926
vt 0.005000 0.993705
vt 0.023855 0.993705
vt 0.023855 0.748926
vt 0.030716 0.750221
vt 0.030716 0.995000
vt 0.068580 0.993705
vt 0.068580 0.748926
vt 0.095492 0.748926
vt 0.076637 0.748926
vt 0.076637 0.993705
vt 0.095492 0.993705
vt 0.102353 0.993705
vt 0.102353 0.748926
vt 0.121208 0.748926
vt 0.121208 0.993705
vt 0.242229 0.216238
vt 0.242229 0.216929
vt 0.234607 0.216929
vt 0.234607 0.216238
vt 0.245903 0.111907
vt 0.245903 0.111538
vt 0.238280 0.111538
vt 0.238280 0.111907
vt 0.260598 0.217008
vt 0.260598 0.216238
vt 0.252975 0.216238
vt 0.252975 0.217008
vt 0.264271 0.111538
vt 0.264271 0.112629
vt 0.256649 0.112629
vt 0.256649 0.111538
vt 0.283857 0.216608
vt 0.283857 0.216238
vt 0.271344 0.216238
vt 0.271344 0.216608
vt 0.291549 0.216238
vt 0.304063 0.216238
vt 0.304063 0.216929
vt 0.291549 0.216929
vt 0.324268 0.188685
vt 0.324268 0.191682
vt 0.311755 0.191682
vt 0.311755 0.188685
vt 0.311755 0.218624
vt 0.324268 0.218624
vt 0.324268 0.216238
vt 0.311755 0.216238
vt 0.328286 0.146438
vt 0.335909 0.146438
vt 0.335909 0.149434
vt 0.328286 0.149434
vt 0.339582 0.191071
vt 0.339582 0.188685
vt 0.331960 0.188685
vt 0.331960 0.191071
vt 0.331960 0.217008
vt 0.344473 0.217008
vt 0.344473 0.216238
vt 0.331960 0.216238
vt 0.359168 0.146438
vt 0.359168 0.147529
vt 0.346655 0.147529
vt 0.346655 0.146438
vt 0.350329 0.341144
vt 0.350329 0.348767
vt 0.353012 0.348767
vt 0.353012 0.341144
vt 0.354002 0.119160
vt 0.356527 0.119160
vt 0.356527 0.111538
vt 0.354002 0.111538
vt 0.350329 0.355839
vt 0.350329 0.363462
vt 0.368174 0.363462
vt 0.368174 0.355839
vt 0.243102 0.361350
vt 0.205217 0.361350
vt 0.205217 0.368973
vt 0.243102 0.368973
vt 0.251138 0.361350
vt 0.251138 0.380205
vt 0.289023 0.380205
vt 0.289023 0.361350
vt 0.354002 0.126232
vt 0.354002 0.133855
vt 0.362681 0.133855
vt 0.362681 0.126232
vt 0.297060 0.378157
vt 0.355406 0.378157
vt 0.355406 0.370534
vt 0.297060 0.370534
vt 0.393320 0.155622
vt 0.361350 0.155622
vt 0.361350 0.174477
vt 0.393320 0.174477
vt 0.377357 0.194471
vt 0.377357 0.186849
vt 0.359513 0.186849
vt 0.359513 0.194471
vt 0.370534 0.147930
vt 0.373059 0.147930
vt 0.373059 0.135417
vt 0.370534 0.135417
vt 0.375055 0.111538
vt 0.372371 0.111538
vt 0.372371 0.124051
vt 0.375055 0.124051
vt 0.381032 0.383048
vt 0.381032 0.370534
vt 0.363187 0.370534
vt 0.363187 0.383048
vt 0.359513 0.348767
vt 0.361817 0.348767
vt 0.361817 0.341144
vt 0.359513 0.341144
vt 0.378349 0.360000
vt 0.378349 0.341144
vt 0.376045 0.341144
vt 0.376045 0.360000
vt 0.243102 0.376045
vt 0.205217 0.376045
vt 0.205217 0.388558
vt 0.243102 0.388558
vt 0.295223 0.385229
vt 0.295223 0.409688
vt 0.333108 0.409688
vt 0.333108 0.385229
vt 0.382022 0.129906
vt 0.379718 0.129906
vt 0.379718 0.142420
vt 0.382022 0.142420
vt 0.385229 0.205798
vt 0.387535 0.205798
vt 0.387535 0.181338
vt 0.385229 0.181338
vt 0.341144 0.390739
vt 0.341144 0.403253
vt 0.399491 0.403253
vt 0.399491 0.390739
vt 0.385229 0.341144
vt 0.385229 0.353658
vt 0.393905 0.353658
vt 0.393905 0.341144
vt 0.251138 0.399579
vt 0.268982 0.399579
vt 0.268982 0.387066
vt 0.251138 0.387066
vt 0.420873 0.111538
vt 0.388902 0.111538
vt 0.388902 0.135997
vt 0.420873 0.135997
vt 0.493504 0.213026
vt 0.684141 0.005000
vt 0.492813 0.163466
vt 0.493504 0.163466
vt 0.493504 0.165769
vt 0.492735 0.165769
vt 0.492413 0.175164
vt 0.493504 0.175164
vt 0.491119 0.213026
vt 0.493504 0.154071
vt 0.495128 0.095760
vt 0.493134 0.154071
vt 0.477284 0.095601
vt 0.005000 0.005000
vt 0.232500 0.095760
vt 0.476988 0.104274
vt 0.232209 0.104274
vt 0.227788 0.233555
vt 0.227879 0.230873
vt 0.472659 0.230873
vt 0.214656 0.095601
vt 0.209944 0.233396
vt 0.005000 0.278511
vt 0.490508 0.230873
vt 0.005000 0.559549
vt 0.195637 0.351523
vt 0.195637 0.398781
vt 0.195637 0.401084
vt 0.196328 0.401084
vt 0.196407 0.398781
vt 0.195637 0.389385
vt 0.196728 0.389385
vt 0.198023 0.351523
vt 0.195637 0.410478
vt 0.194013 0.468790
vt 0.196007 0.410478
vt 0.684141 0.559549
vt 0.211856 0.468948
vt 0.212153 0.460276
vt 0.456641 0.468790
vt 0.456932 0.460276
vt 0.461262 0.333677
vt 0.461353 0.330995
vt 0.216482 0.333677
vt 0.474485 0.468948
vt 0.684141 0.286039
vt 0.479197 0.331153
vt 0.198633 0.333677
vt 0.321977 0.567077
vt 0.321885 0.569759
vt 0.339735 0.569759
vt 0.339821 0.567236
vt 0.597736 0.705031
vt 0.580185 0.696358
vt 0.579894 0.704872
vt 0.321274 0.587606
vt 0.319980 0.625468
vt 0.337829 0.625468
vt 0.339124 0.587606
vt 0.319659 0.634863
vt 0.337508 0.634863
vt 0.335109 0.705031
vt 0.335405 0.696358
vt 0.319259 0.646561
vt 0.317265 0.704872
vt 0.581887 0.646561
vt 0.582209 0.637166
vt 0.337430 0.637166
vt 0.337108 0.646561
vt 0.582288 0.634863
vt 0.582608 0.625468
vt 0.319581 0.637166
vt 0.318889 0.637166
vt 0.318889 0.646561
vt 0.318889 0.625468
vt 0.318889 0.634863
vt 0.336016 0.678512
vt 0.580795 0.678512
vt 0.318889 0.569759
vt 0.318889 0.587606
vt 0.267714 0.702349
vt 0.285564 0.702349
vt 0.285472 0.705031
vt 0.267628 0.704872
vt 0.027265 0.575750
vt 0.009713 0.567077
vt 0.027555 0.567236
vt 0.269619 0.646640
vt 0.287469 0.646640
vt 0.286175 0.684502
vt 0.268325 0.684502
vt 0.269941 0.637245
vt 0.287790 0.637245
vt 0.288190 0.625547
vt 0.272044 0.575750
vt 0.272340 0.567077
vt 0.290184 0.567236
vt 0.270019 0.634942
vt 0.025240 0.634942
vt 0.025562 0.625547
vt 0.270341 0.625547
vt 0.024840 0.646640
vt 0.025161 0.637245
vt 0.288560 0.634942
vt 0.287868 0.634942
vt 0.288560 0.625547
vt 0.288560 0.646640
vt 0.288560 0.637245
vt 0.271433 0.593596
vt 0.026654 0.593596
vt 0.288560 0.702349
vt 0.288560 0.684502
# 456 texture coordinates

vn 0.000000 -1.000000 0.000000
vn 0.000000 1.000000 0.000000
vn 1.000000 0.000000 0.000000
vn -1.000000 0.000000 0.000000
vn 0.000000 0.000000 1.000000
vn 0.000000 0.000000 -1.000000
vn -0.008884 0.999961 0.000000
vn -0.999416 -0.034163 0.000000
vn 0.008884 -0.999961 0.000000
vn 0.999417 0.034132 0.000000
vn -0.694920 -0.719088 0.000000
vn 0.000000 0.000000 1.000000
vn 0.000000 0.000000 1.000000
vn 0.000000 0.000000 1.000000
# 14 normals

usemtl wire_138008110
f 1/1/1 2/2/1 3/3/1 4/4/1
f 5/5/2 6/6/2 7/7/2 8/8/2
f 4/9/3 3/10/3 7/11/3 6/12/3
f 2/13/4 1/14/4 5/15/4 8/16/4
f 6/17/5 9/18/5 10/19/5 11/20/5
f 12/21/6 13/22/6 7/23/6 14/24/6
f 15/25/7 16/26/7 17/27/7 18/28/7
f 19/29/8 20/30/8 16/31/8 15/32/8
f 21/33/9 22/34/9 20/35/9 19/36/9
f 23/37/9 24/38/9 25/39/9 26/40/9
f 27/41/8 24/42/8 23/43/8 28/44/8
f 29/45/7 27/46/7 28/47/7 30/48/7
f 31/49/3 32/50/3 33/51/3 34/52/3
f 35/53/3 36/54/3 37/55/3 38/56/3
f 39/57/10 40/58/10 41/59/10 42/60/10
f 43/61/10 44/62/10 45/63/10 46/64/10
f 47/65/10 48/66/10 18/67/10 17/68/10
f 29/69/10 30/70/10 49/71/10 50/72/10
f 51/73/3 52/74/3 11/75/3 53/76/3
f 54/77/3 14/78/3 55/79/3 56/80/3
f 57/81/10 58/82/10 59/83/10 60/84/10
f 61/85/10 62/86/10 63/87/10 64/88/10
f 65/89/3 66/90/3 67/91/3 68/92/3
f 69/93/3 70/94/3 71/95/3 72/96/3
f 73/97/10 74/98/10 22/99/10 21/100/10
f 26/101/10 25/102/10 75/103/10 76/104/10
f 77/105/10 78/106/10 79/107/10 80/108/10
f 81/109/10 82/110/10 83/111/10 84/112/10
f 48/113/6 39/114/6 15/115/6 18/116/6
f 85/117/2 48/118/2 47/119/2 86/120/2
f 87/121/11 88/122/11 40/123/1 39/124/1
f 88/125/6 89/126/6 41/127/6 40/128/6
f 90/129/1 91/130/1 60/131/1 59/132/1
f 92/133/2 42/134/2 41/135/2 89/136/2
f 74/137/1 73/138/1 93/139/1 94/140/1
f 95/141/2 96/142/2 81/143/2 84/144/2
f 97/145/2 98/146/2 80/147/2 79/148/2
f 99/149/1 76/150/1 75/151/1 100/152/1
f 28/153/5 43/154/5 49/155/5 30/156/5
f 101/157/5 77/158/5 80/159/5 98/160/5
f 102/161/6 95/162/6 84/163/6 83/164/6
f 83/165/1 82/166/1 103/167/11 102/168/11
f 104/169/2 58/170/2 57/171/2 105/172/2
f 106/173/2 107/174/2 61/175/2 64/176/2
f 101/177/1 108/178/1 78/179/1 77/180/1
f 57/181/6 60/182/6 91/183/6 105/184/6
f 109/185/5 62/186/5 61/187/5 107/188/5
f 110/189/2 111/190/2 50/191/2 49/192/2
f 112/193/1 43/194/1 46/195/1 113/196/1
f 113/197/5 46/198/5 45/199/5 114/200/5
f 109/201/1 115/202/1 63/203/1 62/204/1
f 114/205/2 45/206/2 44/207/2 116/208/2
f 117/209/2 68/210/2 67/211/2 118/212/2
f 119/213/1 66/214/1 65/215/1 120/216/1
f 121/217/1 36/218/1 35/219/1 122/220/1
f 123/221/2 38/222/2 37/223/2 124/224/2
f 125/225/1 72/226/1 71/227/1 126/228/1
f 127/229/2 128/230/2 70/231/2 69/232/2
f 129/233/2 14/234/2 54/235/2 130/236/2
f 131/237/1 132/238/1 56/239/1 55/240/1
f 133/241/2 134/242/2 53/243/2 11/244/2
f 135/245/1 52/246/1 51/247/1 136/248/1
f 137/249/1 138/250/1 34/251/1 33/252/1
f 139/253/2 32/254/2 31/255/2 140/256/2
f 134/257/10 133/258/10 10/259/10 141/260/10
f 110/261/8 142/262/8 9/263/8 111/264/8
f 141/265/7 10/266/7 9/267/7 142/268/7
f 136/269/10 123/270/10 124/271/10 135/272/10
f 114/273/8 116/274/8 112/275/8 113/276/8
f 143/277/8 144/278/8 99/279/8 100/280/8
f 145/281/10 119/282/10 120/283/10 146/284/10
f 101/285/8 98/286/8 97/287/8 108/288/8
f 144/289/9 143/290/9 145/291/9 146/292/9
f 86/293/8 13/294/8 147/295/8 85/296/8
f 12/297/10 129/298/10 130/299/10 148/300/10
f 147/301/7 13/302/7 12/303/7 148/304/7
f 118/305/10 121/306/10 122/307/10 117/308/10
f 115/309/8 109/310/8 107/311/8 106/312/8
f 131/313/10 139/314/10 140/315/10 132/316/10
f 92/317/8 89/318/8 88/319/11 87/320/11
f 137/321/10 128/322/10 127/323/10 138/324/10
f 105/325/8 91/326/8 90/327/8 104/328/8
f 149/329/10 150/330/10 125/331/10 126/332/10
f 151/333/8 152/334/8 94/335/8 93/336/8
f 149/337/9 152/338/9 151/339/9 150/340/9
f 103/341/11 96/342/8 95/343/8 102/344/11
f 11/20/5 52/345/5 4/346/5 6/17/5
f 118/347/5 67/348/5 36/349/5 121/350/5
f 124/351/5 37/352/5 52/345/5 135/353/5
f 37/352/5 36/349/5 4/346/5 52/345/5
f 67/348/5 66/354/5 4/346/5 36/349/5
f 145/355/5 4/346/5 66/354/5 119/356/5
f 145/355/5 143/357/5 1/358/5 4/346/5
f 25/359/5 143/357/5 100/360/5 75/361/5
f 9/18/5 29/362/5 50/363/5 111/364/5
f 25/359/5 24/365/5 1/358/5 143/357/5
f 24/365/5 27/366/5 5/367/5 1/358/5
f 27/366/5 29/362/5 6/17/5 5/367/5
f 11/20/5 10/19/5 133/368/5
f 9/18/5 6/17/5 29/362/5
f 3/369/6 55/370/6 14/24/6 7/23/6
f 33/371/6 70/372/6 128/373/6 137/374/6
f 55/370/6 32/375/6 139/376/6 131/377/6
f 3/369/6 33/371/6 32/375/6 55/370/6
f 3/369/6 71/378/6 70/372/6 33/371/6
f 71/378/6 3/369/6 149/379/6 126/380/6
f 2/381/6 152/382/6 149/379/6 3/369/6
f 94/383/6 152/382/6 22/384/6 74/385/6
f 47/386/6 17/387/6 13/22/6 86/388/6
f 2/381/6 20/389/6 22/384/6 152/382/6
f 8/390/6 16/391/6 20/389/6 2/381/6
f 7/23/6 17/387/6 16/391/6 8/390/6
f 12/21/6 14/24/6 129/392/6
f 7/23/6 13/22/6 17/387/6
f 148/393/6 130/394/6 85/395/6 147/396/6
f 19/397/6 15/115/6 73/398/6 21/399/6
f 132/400/6 140/401/6 92/402/6 87/403/6
f 140/401/6 138/404/6 90/405/6 92/402/6
f 151/406/6 93/407/6 125/408/6 150/409/6
f 82/410/6 58/411/6 104/412/6 103/413/6
f 59/414/6 42/415/6 92/402/6 90/405/6
f 125/408/6 127/416/6 69/417/6 72/418/6
f 138/404/6 140/401/6 31/419/6 34/420/6
f 138/404/6 127/416/6 104/412/6 90/405/6
f 127/416/6 125/408/6 103/413/6 104/412/6
f 125/408/6 93/407/6 96/421/6 103/413/6
f 73/398/6 81/422/6 96/421/6 93/407/6
f 15/115/6 82/410/6 81/422/6 73/398/6
f 15/115/6 59/414/6 58/411/6 82/410/6
f 15/115/6 39/114/6 42/415/6 59/414/6
f 132/400/6 130/394/6 54/423/6 56/424/6
f 87/403/6 85/395/6 130/394/6 132/400/6
f 39/114/6 48/113/6 85/395/6 87/403/6
f 110/425/12 134/426/12 141/427/12 142/428/12
f 76/429/5 28/153/5 23/430/5 26/431/5
f 116/432/5 123/433/5 136/434/5 112/435/5
f 115/436/5 122/437/5 123/433/5 116/432/5
f 120/438/13 99/439/14 144/440/14 146/441/5
f 106/442/5 64/443/5 78/444/5 108/445/12
f 116/432/5 44/446/5 63/447/5 115/436/5
f 68/448/5 117/449/5 120/438/13 65/450/5
f 38/451/5 123/433/5 122/437/5 35/452/5
f 106/442/5 117/449/5 122/437/5 115/436/5
f 108/445/12 120/438/13 117/449/5 106/442/5
f 97/453/13 99/439/14 120/438/13 108/445/12
f 97/453/13 79/454/5 76/429/5 99/439/14
f 79/454/5 78/444/5 28/153/5 76/429/5
f 64/443/5 63/447/5 28/153/5 78/444/5
f 44/446/5 43/154/5 28/153/5 63/447/5
f 53/455/5 134/426/12 136/434/5 51/456/5
f 134/426/12 110/425/12 112/435/5 136/434/5
f 110/425/12 49/155/5 43/154/5 112/435/5

# 152 faces
