# Wavefront Obj file
# 
# verts: 160 uv-s: 383
mtllib wall3house.mtl

g Box005

v 0.594071 30.637033 21.231310
v -0.282807 30.993065 19.636036
v 0.108598 30.939262 19.950714
v 0.867516 30.643822 20.559658
v -0.862674 30.649912 19.488108
v 0.004800 34.114700 19.498400
v 0.511500 34.114700 19.634199
v -0.872800 34.114700 21.018499
v 0.601700 36.735500 21.018499
v 0.466000 36.735500 20.511801
v -1.008600 34.114700 20.511801
v -0.872800 34.114700 20.005100
v 0.601700 36.735500 20.005100
v -2.137475 28.975992 20.774569
v -1.683879 30.448797 21.169214
v -0.501900 34.114700 19.634199
v -1.757820 29.008463 19.536755
v -2.037036 29.431103 19.913935
v -1.454368 30.069300 21.450329
v -0.501900 34.114700 21.389500
v -0.811289 30.864246 21.524157
v 0.004800 34.114700 21.525200
v -0.289618 30.965841 21.417660
v 0.511500 34.114700 21.389500
v 3.222300 39.858200 20.271400
v 3.222300 39.858200 20.752300
v 3.286700 39.858200 20.511801
v 3.222300 39.604801 20.511801
v 0.725600 36.296299 19.634199
v 0.725600 35.395699 19.498400
v 0.725600 36.735500 19.881300
v 0.725600 36.296299 21.389500
v 0.725600 36.735500 21.142401
v 0.725600 35.395699 21.525200
v 0.725600 34.495098 19.634199
v 0.725600 37.222500 21.018499
v 0.725600 34.114700 19.848301
v 0.725600 34.114700 21.175400
v 0.725600 34.495098 21.389500
v 0.725600 37.222500 20.005100
v 0.725600 32.963699 20.511801
v 0.725600 33.497700 21.018499
v 0.725600 33.497700 20.005100
v 0.725600 37.756500 20.511801
v -3.286700 27.390600 28.381300
v -3.286700 26.845301 28.381300
v -3.286700 30.087799 30.804897
v -3.286700 28.445900 28.381300
v -2.540300 27.390600 28.381300
v -2.540300 27.390600 17.756001
v -3.286700 27.390600 17.756001
v -2.540300 28.445900 28.381300
v -2.540300 28.445900 17.756001
v -3.286700 28.445900 17.756001
v -2.540300 25.790001 17.756001
v -3.286700 25.790001 17.756001
v -3.286700 25.790001 28.381300
v -2.540300 25.790001 28.381300
v -2.540300 26.845301 17.756001
v -2.540300 26.845301 28.381300
v -3.286700 26.845301 17.756001
v -2.540300 24.189400 17.756001
v -3.286700 24.189400 17.756001
v -3.286700 24.189400 28.381300
v -2.540300 24.189400 28.381300
v -2.540300 25.244699 17.756001
v -2.540300 25.244699 28.381300
v -3.286700 25.244699 28.381300
v -3.286700 25.244699 17.756001
v -2.540300 22.588800 17.756001
v -3.286700 22.588800 17.756001
v -3.286700 22.588800 28.381300
v -2.540300 22.588800 28.381300
v -2.540300 23.643999 17.756001
v -2.540300 23.643999 28.381300
v -3.286700 23.643999 28.381300
v -3.286700 23.643999 17.756001
v -2.540300 20.988199 17.756001
v -3.286700 20.988199 17.756001
v -3.286700 20.988199 28.381300
v -2.540300 20.988199 28.381300
v -2.540300 22.043400 17.756001
v -2.540300 22.043400 28.381300
v -3.286700 22.043400 28.381300
v -3.286700 22.043400 17.756001
v -2.540300 19.387600 17.756001
v -3.286700 19.387600 17.756001
v -3.286700 19.387600 28.381300
v -2.540300 19.387600 28.381300
v -2.540300 20.442801 17.756001
v -2.540300 20.442801 28.381300
v -3.286700 20.442801 28.381300
v -3.286700 20.442801 17.756001
v -2.540300 17.820101 17.756001
v -3.286700 17.820101 17.756001
v -3.286700 17.820101 28.381300
v -2.540300 17.820101 28.381300
v -2.540300 18.875401 17.756001
v -2.540300 18.875401 28.381300
v -3.286700 18.875401 28.381300
v -3.286700 18.875401 17.756001
v 0.725600 16.207300 15.145700
v 0.725600 16.207300 30.804897
v -3.286700 16.207300 30.804897
v -3.286700 16.207300 15.145700
v 0.725600 30.087799 30.804897
v 0.725600 30.087799 15.145700
v -3.286700 30.087799 15.145700
v 0.725600 32.963699 24.329000
v 0.725600 33.497700 23.822300
v 0.088669 30.982449 24.839211
v -0.282400 30.992001 23.451401
v 0.088500 30.992001 23.822300
v 0.224300 30.992001 24.329000
v -0.789100 30.992001 23.315599
v 0.004800 34.114700 23.315599
v 0.511500 34.114700 23.451401
v -0.872800 34.114700 24.835699
v 0.601700 36.735500 24.835699
v 0.466000 36.735500 24.329000
v -1.008600 34.114700 24.329000
v -0.872800 34.114700 23.822300
v 0.601700 36.735500 23.822300
v -2.007350 29.938828 24.442053
v -1.917397 29.703636 24.973999
v -0.501900 34.114700 23.451401
v -1.478354 30.074081 23.429340
v -1.935826 29.639284 23.789789
v -1.332536 30.041426 25.528547
v -0.501900 34.114700 25.206600
v -0.694736 29.800030 25.779545
v 0.004800 34.114700 25.342400
v -0.250042 30.531197 25.375656
v 0.511500 34.114700 25.206600
v 3.222300 39.858200 24.088499
v 3.222300 39.858200 24.569500
v 3.286700 39.858200 24.329000
v 3.222300 39.604801 24.329000
v 0.725600 36.296299 23.451401
v 0.725600 35.395699 23.315599
v 0.725600 36.735500 23.698500
v 0.725600 36.296299 25.206600
v 0.725600 36.735500 24.959499
v 0.725600 35.395699 25.342400
v 0.725600 34.495098 23.451401
v 0.725600 37.222500 24.835699
v 0.725600 34.114700 23.665400
v 0.725600 34.114700 24.992599
v 0.725600 34.495098 25.206600
v 0.725600 37.222500 23.822300
v 0.725600 33.497700 24.835699
v 0.725600 37.756500 24.329000
v 0.725600 -0.353500 48.413300
v 0.725600 -0.353500 -51.118599
v 3.222300 -0.353500 -51.118599
v 3.222300 -0.353500 48.413300
v 3.222300 41.993999 48.413300
v 0.725600 41.993999 48.413300
v 0.725600 41.993999 -51.118599
v 3.222300 41.993999 -51.118599
# 160 positions

vt 0.673710 0.634355
vt 0.684340 0.637203
vt 0.681492 0.634355
vt 0.677601 0.633312
vt 0.677560 0.604871
vt 0.681451 0.604871
vt 0.675354 0.580892
vt 0.671464 0.580892
vt 0.065504 0.215360
vt 0.045379 0.215360
vt 0.045379 0.219251
vt 0.065504 0.219251
vt 0.065504 0.223141
vt 0.045379 0.223141
vt 0.089482 0.219251
vt 0.089482 0.215360
vt 0.679245 0.580892
vt 0.685342 0.604871
vt 0.065504 0.225990
vt 0.089482 0.225990
vt 0.089482 0.223141
vt 0.089482 0.212511
vt 0.065504 0.212511
vt 0.675916 0.528554
vt 0.669820 0.504575
vt 0.673710 0.504575
vt 0.679807 0.528554
vt 0.677601 0.504575
vt 0.683698 0.528554
vt 0.076093 0.200987
vt 0.079786 0.200987
vt 0.077939 0.201482
vt 0.646188 0.556884
vt 0.644242 0.555037
vt 0.646188 0.555037
vt 0.646188 0.553191
vt 0.669820 0.564140
vt 0.669820 0.571056
vt 0.045379 0.224092
vt 0.048752 0.225990
vt 0.048752 0.212511
vt 0.045379 0.214408
vt 0.685342 0.545306
vt 0.685342 0.538391
vt 0.669820 0.577971
vt 0.041640 0.215360
vt 0.669820 0.580892
vt 0.685342 0.528554
vt 0.685342 0.531475
vt 0.041640 0.223141
vt 0.684960 0.618915
vt 0.689061 0.622806
vt 0.669820 0.622806
vt 0.669820 0.618915
vt 0.693798 0.625655
vt 0.693798 0.624011
vt 0.669820 0.615024
vt 0.689061 0.615024
vt 0.037539 0.219251
vt 0.693798 0.612176
vt 0.693798 0.613820
vt 0.690531 0.238812
vt 0.694718 0.238812
vt 0.669820 0.220202
vt 0.682427 0.238812
vt 0.751409 0.395020
vt 0.669820 0.395020
vt 0.669820 0.389289
vt 0.751409 0.389289
vt 0.677923 0.402739
vt 0.669820 0.402739
vt 0.669820 0.484329
vt 0.677923 0.484329
vt 0.669820 0.556422
vt 0.677923 0.556422
vt 0.677923 0.550690
vt 0.669820 0.550690
vt 0.677923 0.348938
vt 0.669820 0.348938
vt 0.669820 0.354670
vt 0.677923 0.354670
vt 0.751409 0.179851
vt 0.669820 0.179851
vt 0.669820 0.185583
vt 0.751409 0.185583
vt 0.669820 0.158683
vt 0.669820 0.152951
vt 0.751409 0.152951
vt 0.751409 0.158683
vt 0.751409 0.166401
vt 0.669820 0.166401
vt 0.669820 0.172133
vt 0.751409 0.172133
vt 0.186033 0.147187
vt 0.177930 0.147187
vt 0.177930 0.228777
vt 0.186033 0.228777
vt 0.097229 0.206719
vt 0.105333 0.206719
vt 0.105333 0.200987
vt 0.097229 0.200987
vt 0.677923 0.491125
vt 0.669820 0.491125
vt 0.669820 0.496857
vt 0.677923 0.496857
vt 0.669820 0.199033
vt 0.669820 0.193301
vt 0.751409 0.193301
vt 0.751409 0.199033
vt 0.751409 0.206752
vt 0.669820 0.206752
vt 0.669820 0.212483
vt 0.751409 0.212483
vt 0.124548 0.147187
vt 0.116444 0.147187
vt 0.116444 0.228777
vt 0.124548 0.228777
vt 0.097229 0.179819
vt 0.105332 0.179819
vt 0.105332 0.174087
vt 0.097229 0.174087
vt 0.105332 0.187537
vt 0.097229 0.187537
vt 0.097229 0.193269
vt 0.105332 0.193269
vt 0.091465 0.241305
vt 0.091465 0.235573
vt 0.173055 0.235573
vt 0.173055 0.241305
vt 0.751410 0.058800
vt 0.669820 0.058800
vt 0.669820 0.064532
vt 0.751410 0.064532
vt 0.139918 0.147187
vt 0.131815 0.147187
vt 0.131815 0.228777
vt 0.139918 0.228777
vt 0.109175 0.152918
vt 0.109175 0.147187
vt 0.101072 0.147187
vt 0.101072 0.152918
vt 0.091465 0.160637
vt 0.091465 0.166368
vt 0.099568 0.166368
vt 0.099568 0.160637
vt 0.669820 0.077982
vt 0.669820 0.072251
vt 0.751410 0.072251
vt 0.751410 0.077982
vt 0.751410 0.085701
vt 0.669820 0.085701
vt 0.669820 0.091432
vt 0.751410 0.091432
vt 0.155290 0.147187
vt 0.147187 0.147187
vt 0.147187 0.228777
vt 0.155290 0.228777
vt 0.677922 0.368120
vt 0.677922 0.362389
vt 0.669820 0.362389
vt 0.669820 0.368120
vt 0.669820 0.375839
vt 0.669820 0.381570
vt 0.677922 0.381570
vt 0.677922 0.375839
vt 0.669820 0.104882
vt 0.669820 0.099151
vt 0.751410 0.099151
vt 0.751410 0.104882
vt 0.751410 0.112601
vt 0.669820 0.112601
vt 0.669820 0.118332
vt 0.751410 0.118332
vt 0.170661 0.147187
vt 0.162558 0.147187
vt 0.162558 0.228777
vt 0.170661 0.228777
vt 0.105332 0.220169
vt 0.105332 0.214437
vt 0.097229 0.214437
vt 0.097229 0.220169
vt 0.179851 0.235573
vt 0.179851 0.241305
vt 0.187954 0.241305
vt 0.187954 0.235573
vt 0.669820 0.131782
vt 0.669820 0.126051
vt 0.751410 0.126051
vt 0.751410 0.131782
vt 0.751410 0.139501
vt 0.669820 0.139501
vt 0.669820 0.145233
vt 0.751410 0.145233
vt 0.693294 0.402739
vt 0.685191 0.402739
vt 0.685191 0.484329
vt 0.693294 0.484329
vt 0.699058 0.592929
vt 0.699058 0.587197
vt 0.690955 0.587197
vt 0.690955 0.592929
vt 0.685191 0.556454
vt 0.685191 0.562186
vt 0.693294 0.562186
vt 0.693294 0.556454
vt 0.790065 0.694798
vt 0.669820 0.694798
vt 0.669820 0.725608
vt 0.790065 0.725608
vt 0.685191 0.348938
vt 0.685191 0.379748
vt 0.791777 0.379748
vt 0.791777 0.348938
vt 0.669820 0.764037
vt 0.669820 0.733227
vt 0.790065 0.733227
vt 0.790065 0.764037
vt 0.669820 0.687179
vt 0.776405 0.687179
vt 0.776405 0.656369
vt 0.669820 0.656369
vt 0.695799 0.530482
vt 0.726719 0.456539
vt 0.704637 0.506267
vt 0.700535 0.510157
vt 0.696768 0.634355
vt 0.707397 0.637203
vt 0.704549 0.634355
vt 0.700658 0.633312
vt 0.710224 0.446842
vt 0.714115 0.446842
vt 0.708019 0.422864
vt 0.704128 0.422864
vt 0.065504 0.186048
vt 0.045379 0.186048
vt 0.045379 0.189939
vt 0.065504 0.189939
vt 0.065504 0.193830
vt 0.045379 0.193830
vt 0.089482 0.189939
vt 0.089482 0.186048
vt 0.711910 0.422864
vt 0.718006 0.446842
vt 0.714758 0.422864
vt 0.720854 0.446842
vt 0.089482 0.193830
vt 0.089482 0.183200
vt 0.065504 0.183200
vt 0.712423 0.616940
vt 0.706327 0.592962
vt 0.710218 0.592962
vt 0.716314 0.616940
vt 0.714108 0.592962
vt 0.720204 0.616940
vt 0.079936 0.174087
vt 0.083631 0.174087
vt 0.081783 0.174582
vt 0.646188 0.586195
vt 0.644242 0.584349
vt 0.646188 0.584349
vt 0.646188 0.582502
vt 0.702484 0.406111
vt 0.702484 0.413027
vt 0.703436 0.402739
vt 0.702484 0.402739
vt 0.048752 0.183200
vt 0.045379 0.185098
vt 0.721849 0.633693
vt 0.721849 0.626777
vt 0.702484 0.419942
vt 0.041640 0.186048
vt 0.702484 0.422864
vt 0.721849 0.616940
vt 0.721849 0.619861
vt 0.041640 0.193830
vt 0.045379 0.194781
vt 0.702252 0.573795
vt 0.706354 0.577686
vt 0.687113 0.577686
vt 0.687113 0.573795
vt 0.711091 0.580534
vt 0.711091 0.578891
vt 0.687113 0.569905
vt 0.706354 0.569905
vt 0.037539 0.189939
vt 0.702484 0.427601
vt 0.707376 0.446842
vt 0.005000 0.796592
vt 0.769288 0.796592
vt 0.769288 0.777420
vt 0.005000 0.777420
vt 0.669820 0.005000
vt 0.669820 0.024172
vt 0.994998 0.024172
vt 0.994998 0.005000
vt 0.005000 0.804321
vt 0.769288 0.804321
vt 0.769288 0.823492
vt 0.005000 0.823492
vt 0.337410 0.769288
vt 0.995000 0.051072
vt 0.995000 0.031900
vt 0.669820 0.031900
vt 0.669820 0.051072
vt 0.681492 0.647834
vt 0.670862 0.644985
vt 0.673710 0.647834
vt 0.677601 0.648876
vt 0.684340 0.644985
vt 0.669820 0.641094
vt 0.685383 0.641094
vt 0.670862 0.637203
vt 0.669820 0.625655
vt 0.674712 0.604871
vt 0.764021 0.238812
vt 0.764021 0.320402
vt 0.776405 0.340446
vt 0.776405 0.220202
vt 0.755918 0.238812
vt 0.743882 0.238812
vt 0.751985 0.238812
vt 0.731591 0.238812
vt 0.739694 0.238812
vt 0.719300 0.238812
vt 0.727403 0.238812
vt 0.707009 0.238812
vt 0.715112 0.238812
vt 0.755918 0.320402
vt 0.669820 0.340446
vt 0.751985 0.320402
vt 0.743882 0.320402
vt 0.690531 0.320402
vt 0.694718 0.320402
vt 0.727403 0.320402
vt 0.731591 0.320402
vt 0.715112 0.320402
vt 0.719300 0.320402
vt 0.739694 0.320402
vt 0.707009 0.320402
vt 0.702821 0.320402
vt 0.682427 0.320402
vt 0.702821 0.238812
vt 0.096426 0.140212
vt 0.203011 0.140212
vt 0.330179 0.005000
vt 0.005000 0.005000
vt 0.203011 0.260456
vt 0.330179 0.769288
vt 0.096426 0.260456
vt 0.005000 0.769288
vt 0.055667 0.227032
vt 0.062583 0.225990
vt 0.048752 0.196678
vt 0.055667 0.211469
vt 0.055667 0.197721
vt 0.062583 0.212511
vt 0.062583 0.196678
vt 0.726719 0.576783
vt 0.700535 0.539469
vt 0.695799 0.540673
vt 0.692877 0.542317
vt 0.704637 0.535578
vt 0.700535 0.531687
vt 0.070242 0.193830
vt 0.065504 0.195035
vt 0.692877 0.528838
vt 0.055667 0.182157
vt 0.062583 0.183200
vt 0.695799 0.501171
vt 0.700535 0.502376
vt 0.692877 0.499528
vt 0.704549 0.647834
vt 0.693919 0.644985
vt 0.696768 0.647834
vt 0.700658 0.648876
vt 0.707397 0.644985
vt 0.692877 0.641094
vt 0.708439 0.641094
vt 0.693919 0.637203
vt 0.716957 0.592962
vt 0.662589 0.005000
vt 0.662589 0.769288
vt 0.337410 0.005000
# 383 texture coordinates

vn 0.176366 -0.984323 0.001787
vn 0.471003 -0.119446 -0.874007
vn 0.019998 -0.001483 -0.999799
vn 0.010054 -0.000748 -0.999949
vn 0.525427 -0.189702 -0.829421
vn -0.816021 0.326501 0.476977
vn -0.786983 0.338379 0.515905
vn -0.928232 0.372001 0.000000
vn -0.931193 0.363669 0.024995
vn -0.827554 0.327285 -0.456113
vn -0.786948 0.338368 -0.515964
vn -0.970874 0.238303 0.024826
vn -0.844745 0.211523 0.491593
vn -0.519655 0.234682 -0.821512
vn -0.479511 0.125799 -0.868472
vn -0.867855 0.211142 -0.449719
vn -0.492378 0.147279 0.857830
vn -0.524113 0.242831 0.816296
vn 0.061999 0.031029 0.997594
vn 0.030756 0.015392 0.999408
vn 0.490627 -0.078676 0.867810
vn 0.553117 -0.161728 0.817255
vn 0.000000 1.000000 0.000000
vn 0.938112 -0.238416 0.251204
vn 0.976214 -0.214214 -0.033457
vn 0.938100 -0.238413 -0.251251
vn -0.474725 0.267119 -0.838620
vn -0.000006 -0.000003 -1.000000
vn -0.679706 0.274693 -0.680106
vn -0.474716 0.267109 0.838628
vn -0.679798 0.274718 0.680004
vn -0.000006 -0.000003 1.000000
vn 0.474733 -0.267180 -0.838596
vn -0.844875 0.214898 0.489903
vn 0.684966 -0.270819 -0.676372
vn 0.726329 -0.238480 0.644650
vn 0.474695 -0.267158 0.838625
vn -0.844827 0.214886 -0.489992
vn 0.892909 -0.109516 0.436715
vn 0.821179 -0.114599 0.559046
vn 0.983954 -0.145675 -0.103021
vn 0.757618 -0.167733 -0.630778
vn 0.804716 -0.167072 -0.569666
vn -1.000000 0.000000 0.000000
vn 0.000000 0.000000 -1.000000
vn 0.000000 0.000000 1.000000
vn 1.000000 0.000000 0.000000
vn -1.000000 0.000000 0.000000
vn -1.000000 0.000000 0.000000
# 49 normals

usemtl wire_184155229
f 1/1/1 2/2/1 3/3/1 4/4/1
f 2/5/2 5/6/3 6/7/4 7/8/5
f 8/9/6 9/10/7 10/11/8 11/12/9
f 12/13/10 11/12/9 10/11/8 13/14/11
f 11/12/9 14/15/12 15/16/13 8/9/6
f 16/17/14 6/7/4 5/6/3 17/18/15
f 12/13/10 16/19/14 17/20/15 18/21/16
f 11/12/9 12/13/10 18/21/16 14/15/12
f 8/9/6 15/16/13 19/22/17 20/23/18
f 20/24/18 19/25/17 21/26/19 22/27/20
f 22/27/20 21/26/19 23/28/21 24/29/22
f 25/30/23 26/31/23 27/32/23
f 26/33/24 28/34/25 27/35/25
f 28/34/25 25/36/26 27/35/25
f 29/37/27 30/38/28 6/7/4 16/17/14
f 16/19/14 13/14/11 31/39/29 29/40/27
f 20/23/18 32/41/30 33/42/31 9/10/7
f 32/43/30 20/24/18 22/27/20 34/44/32
f 30/38/28 35/45/33 7/8/5 6/7/4
f 33/42/31 36/46/34 9/10/7
f 35/45/33 37/47/35 7/8/5
f 38/48/36 39/49/37 24/29/22
f 34/44/32 22/27/20 24/29/22 39/49/37
f 40/50/38 31/39/29 13/14/11
f 41/51/25 42/52/39 1/53/40 4/54/41
f 24/55/22 1/53/40 42/52/39 38/56/36
f 41/51/25 4/54/41 3/57/42 43/58/43
f 36/46/34 44/59/12 10/11/8 9/10/7
f 40/50/38 13/14/11 10/11/8 44/59/12
f 7/60/5 37/61/35 43/58/43 3/57/42
f 45/62/44 46/63/44 47/64/44 48/65/44
f 49/66/23 50/67/23 51/68/23 45/69/23
f 49/70/44 52/71/44 53/72/44 50/73/44
f 52/74/45 49/75/45 45/76/45 48/77/45
f 50/78/46 53/79/46 54/80/46 51/81/46
f 53/82/1 52/83/1 48/84/1 54/85/1
f 55/86/23 56/87/23 57/88/23 58/89/23
f 59/90/1 60/91/1 46/92/1 61/93/1
f 58/94/44 60/95/44 59/96/44 55/97/44
f 60/98/45 58/99/45 57/100/45 46/101/45
f 55/102/46 59/103/46 61/104/46 56/105/46
f 62/106/23 63/107/23 64/108/23 65/109/23
f 66/110/1 67/111/1 68/112/1 69/113/1
f 65/114/44 67/115/44 66/116/44 62/117/44
f 67/118/45 65/119/45 64/120/45 68/121/45
f 62/122/46 66/123/46 69/124/46 63/125/46
f 70/126/23 71/127/23 72/128/23 73/129/23
f 74/130/1 75/131/1 76/132/1 77/133/1
f 73/134/44 75/135/44 74/136/44 70/137/44
f 73/138/45 72/139/45 76/140/45 75/141/45
f 74/142/46 77/143/46 71/144/46 70/145/46
f 78/146/23 79/147/23 80/148/23 81/149/23
f 82/150/1 83/151/1 84/152/1 85/153/1
f 81/154/44 83/155/44 82/156/44 78/157/44
f 81/158/45 80/159/45 84/160/45 83/161/45
f 82/162/46 85/163/46 79/164/46 78/165/46
f 86/166/23 87/167/23 88/168/23 89/169/23
f 90/170/1 91/171/1 92/172/1 93/173/1
f 89/174/44 91/175/44 90/176/44 86/177/44
f 89/178/45 88/179/45 92/180/45 91/181/45
f 90/182/46 93/183/46 87/184/46 86/185/46
f 94/186/23 95/187/23 96/188/23 97/189/23
f 98/190/1 99/191/1 100/192/1 101/193/1
f 97/194/44 99/195/44 98/196/44 94/197/44
f 97/198/45 96/199/45 100/200/45 99/201/45
f 98/202/46 101/203/46 95/204/46 94/205/46
f 102/206/1 103/207/1 104/208/1 105/209/1
f 106/210/46 47/211/46 104/212/46 103/213/46
f 107/214/23 108/215/23 47/216/23 106/217/23
f 107/218/45 102/219/45 105/220/45 108/221/45
f 38/222/44 106/223/44 109/224/44 110/225/44
f 111/226/1 112/227/1 113/228/1 114/229/1
f 112/230/2 115/231/3 116/232/4 117/233/5
f 118/234/6 119/235/7 120/236/8 121/237/9
f 122/238/10 121/237/9 120/236/8 123/239/11
f 121/237/9 124/240/12 125/241/13 118/234/6
f 126/242/14 116/232/4 115/231/3 127/243/15
f 122/244/10 126/242/14 127/243/15 128/245/16
f 121/237/9 122/238/10 128/246/16 124/240/12
f 118/234/6 125/241/13 129/247/17 130/248/18
f 130/249/18 129/250/17 131/251/19 132/252/20
f 132/252/20 131/251/19 133/253/21 134/254/22
f 135/255/23 136/256/23 137/257/23
f 136/258/24 138/259/25 137/260/25
f 138/259/25 135/261/26 137/260/25
f 139/262/27 140/263/28 116/232/4 126/242/14
f 126/242/14 123/264/11 141/265/29 139/262/27
f 130/248/18 142/266/30 143/267/31 119/235/7
f 142/268/30 130/249/18 132/252/20 144/269/32
f 140/263/28 145/270/33 117/233/5 116/232/4
f 143/267/31 146/271/34 119/235/7
f 145/270/33 147/272/35 117/233/5
f 148/273/36 149/274/37 134/254/22
f 144/269/32 132/252/20 134/254/22 149/274/37
f 150/275/38 141/276/29 123/239/11
f 109/277/25 151/278/39 111/279/40 114/280/41
f 134/281/22 111/279/40 151/278/39 148/282/36
f 109/277/25 114/280/41 113/283/42 110/284/43
f 146/271/34 152/285/12 120/236/8 119/235/7
f 150/275/38 123/239/11 120/236/8 152/285/12
f 117/233/5 147/272/35 110/286/43 113/287/42
f 153/288/1 154/289/1 155/290/1 156/291/1
f 157/292/46 158/293/46 153/294/46 156/295/46
f 159/296/23 158/297/23 157/298/23 160/299/23
f 156/300/47 135/261/47 138/259/47 136/258/47
f 155/301/45 154/302/45 159/303/45 160/304/45
f 18/305/1 19/306/1 15/307/1 14/308/1
f 17/309/1 21/310/1 19/306/1 18/305/1
f 5/311/1 23/312/1 21/310/1 17/309/1
f 2/2/1 1/1/1 23/312/1 5/311/1
f 13/14/11 16/19/14 12/13/10
f 20/23/18 9/10/7 8/9/6
f 1/53/40 24/55/22 23/313/21
f 7/8/5 3/314/42 2/5/2
f 96/315/44 95/316/44 105/317/44 104/318/44
f 47/64/44 100/319/44 96/315/44 104/318/44
f 47/64/44 92/320/44 88/321/44 100/319/44
f 47/64/44 84/322/44 80/323/44 92/320/44
f 47/64/44 76/324/44 72/325/44 84/322/44
f 47/64/44 68/326/44 64/327/44 76/324/44
f 95/316/44 101/328/44 108/329/44 105/317/44
f 88/321/44 87/330/44 101/328/44 100/319/44
f 87/330/44 93/331/44 108/329/44 101/328/44
f 45/62/44 51/332/44 61/333/44 46/63/44
f 72/325/44 71/334/44 85/335/44 84/322/44
f 64/327/44 63/336/44 77/337/44 76/324/44
f 80/323/44 79/338/44 93/331/44 92/320/44
f 79/338/44 85/335/44 108/329/44 93/331/44
f 71/334/44 77/337/44 108/329/44 85/335/44
f 63/336/44 69/339/44 108/329/44 77/337/44
f 56/340/44 61/333/44 108/329/44 69/339/44
f 51/332/44 54/341/44 108/329/44 61/333/44
f 54/341/44 48/65/44 47/64/44 108/329/44
f 69/339/44 68/326/44 57/342/44 56/340/44
f 47/64/44 46/63/44 57/342/44 68/326/44
f 106/343/44 103/344/44 153/345/44 158/346/48
f 103/344/44 102/347/44 154/348/44 153/345/44
f 102/347/44 107/349/44 159/350/44 154/348/44
f 30/351/44 29/40/44 107/349/44 35/352/44
f 139/353/44 32/41/44 34/354/44 140/355/44
f 34/354/44 39/356/44 145/357/44 140/355/44
f 107/358/44 43/359/44 37/360/44 35/361/44
f 107/358/44 106/223/44 41/362/44 43/359/44
f 106/223/44 38/222/44 42/363/44 41/362/44
f 39/356/44 110/364/44 147/365/44 145/357/44
f 38/222/44 110/225/44 39/366/44
f 139/353/44 36/46/48 33/42/44 32/41/44
f 141/276/44 150/275/49 36/46/48 139/353/44
f 29/40/44 31/39/44 159/350/44 107/349/44
f 40/50/49 44/59/48 159/350/44 31/39/44
f 44/59/48 36/46/48 158/346/48 159/350/44
f 152/285/44 158/346/48 36/46/48 150/275/49
f 146/271/48 106/343/44 158/346/48 152/285/44
f 143/267/44 142/266/44 106/343/44 146/271/48
f 144/367/44 149/368/44 106/343/44 142/266/44
f 148/369/44 151/370/44 106/223/44 149/371/44
f 109/224/44 106/223/44 151/370/44
f 128/372/1 129/373/1 125/374/1 124/375/1
f 127/376/1 131/377/1 129/373/1 128/372/1
f 115/378/1 133/379/1 131/377/1 127/376/1
f 112/227/1 111/226/1 133/379/1 115/378/1
f 123/264/11 126/242/14 122/244/10
f 130/248/18 119/235/7 118/234/6
f 111/380/40 134/254/22 133/253/21
f 117/233/5 113/287/42 112/230/2
f 136/258/47 135/261/47 160/381/47 157/382/47
f 26/33/47 25/36/47 160/381/47 135/261/47
f 156/300/47 136/258/47 157/382/47
f 25/36/47 156/300/47 155/383/47 160/381/47
f 28/34/47 26/33/47 156/300/47 25/36/47
f 135/261/47 156/300/47 26/33/47

# 171 faces
