# Wavefront Obj file
# 
# verts: 154 uv-s: 361
mtllib Flash.mtl

g Box001
#pivot 0.000000 0.000000 0.000000

v -8.207400 0.557100 13.080200
v -9.944300 0.800900 2.267800
v -4.424800 0.557100 2.013000
v -0.932800 0.557100 13.080200
v -3.103700 0.557100 -5.352900
v -1.052900 0.557100 -9.054201
v -3.346100 0.557100 -4.933000
v -7.703800 0.557100 -9.054201
v -4.424800 0.557100 -9.054201
v -5.727600 0.614600 -6.307900
v -5.727600 7.964000 -5.352900
v -5.811800 7.964000 -5.830400
v -9.944300 7.964000 2.013000
v -5.485200 7.964000 -4.933000
v -8.238000 7.964000 13.080200
v -9.944300 4.260500 13.080200
v 1.094700 0.557100 2.013000
v 1.094700 4.260500 2.013000
v 1.094700 4.260500 13.080200
v 1.094700 4.260500 -9.054201
v 1.094700 7.964000 2.013000
v -0.220900 7.964000 13.080200
v -0.868500 7.964000 -9.054201
v -9.944300 4.260500 2.013000
v -9.944300 4.260500 -9.054201
v -7.010000 7.964000 -9.054201
v -5.113700 0.587500 -7.039501
v -5.485200 0.603900 -6.727800
v -3.717600 7.964000 -4.621300
v -3.346100 7.964000 -4.933000
v -3.717600 0.557100 -4.621300
v -4.173200 7.964000 -4.455400
v -4.173200 0.557100 -4.455400
v -4.424800 0.557100 -4.455400
v -4.658100 0.567400 -4.455400
v -4.658100 7.964000 -4.455400
v -5.113700 0.587500 -4.621300
v -5.113700 7.964000 -4.621300
v -5.485200 0.603900 -4.933000
v -5.727600 0.614600 -5.352900
v -5.811800 0.618400 -5.830400
v -5.727600 7.964000 -6.307900
v -5.485200 7.964000 -6.727800
v -5.113700 7.964000 -7.039501
v -4.658100 7.964000 -7.205300
v -4.658100 0.567400 -7.205300
v -4.173200 7.964000 -7.205300
v -4.424800 0.557100 -7.205300
v -3.717600 7.964000 -7.039501
v -4.173200 0.557100 -7.205300
v -3.717600 0.557100 -7.039501
v -3.346100 7.964000 -6.727800
v -3.346100 0.557100 -6.727800
v -3.103700 7.964000 -6.307900
v -3.103700 0.557100 -6.307900
v -3.019500 7.964000 -5.830400
v -3.019500 0.557100 -5.830400
v -3.103700 7.964000 -5.352900
# 58 positions

vt 0.005000 0.202969
vt 0.235112 0.239934
vt 0.240534 0.122467
vt 0.005000 0.048150
vt 0.397297 0.094351
vt 0.476069 0.050706
vt 0.388361 0.099510
vt 0.476069 0.192251
vt 0.476069 0.122467
vt 0.417621 0.150194
vt 0.179170 0.320043
vt 0.169008 0.318251
vt 0.335932 0.230302
vt 0.188106 0.325201
vt 0.951850 0.484020
vt 0.796380 0.641655
vt 0.760066 0.562837
vt 0.797031 0.484020
vt 0.609864 0.476069
vt 0.609864 0.240534
vt 0.688681 0.240534
vt 0.688681 0.476069
vt 0.609864 0.005000
vt 0.688681 0.005000
vt 0.767500 0.240534
vt 0.767500 0.476069
vt 0.767500 0.005000
vt 0.389808 0.758036
vt 0.348027 0.836855
vt 0.393733 0.915671
vt 0.465494 0.915671
vt 0.341253 0.944940
vt 0.336064 0.703983
vt 0.262436 0.709406
vt 0.262436 0.944940
vt 0.341253 0.473871
vt 0.262436 0.473871
vt 0.183618 0.709406
vt 0.183618 0.944940
vt 0.183618 0.473871
vt 0.433192 0.137128
vt 0.426558 0.145035
vt 0.830894 0.130844
vt 0.822988 0.130844
vt 0.822988 0.288479
vt 0.830894 0.288479
vt 0.840590 0.130844
vt 0.840590 0.288479
vt 0.845945 0.288479
vt 0.850910 0.288260
vt 0.850910 0.130844
vt 0.860606 0.287832
vt 0.860606 0.130844
vt 0.868513 0.287483
vt 0.868513 0.130844
vt 0.932943 0.374046
vt 0.776304 0.374046
vt 0.776531 0.365110
vt 0.932943 0.365110
vt 0.776612 0.354947
vt 0.932943 0.354947
vt 0.932943 0.344785
vt 0.776531 0.344785
vt 0.932943 0.335849
vt 0.776304 0.335849
vt 0.804508 0.808095
vt 0.796601 0.808095
vt 0.796601 0.651455
vt 0.804508 0.651106
vt 0.814204 0.808095
vt 0.814204 0.650679
vt 0.824523 0.808095
vt 0.819169 0.650459
vt 0.834219 0.808095
vt 0.824523 0.650459
vt 0.834219 0.650459
vt 0.842126 0.808095
vt 0.842126 0.650459
vt 0.776304 0.411794
vt 0.776304 0.420730
vt 0.933939 0.420730
vt 0.933939 0.411794
vt 0.776304 0.401632
vt 0.933939 0.401632
vt 0.933939 0.391469
vt 0.776304 0.391469
vt 0.776304 0.382533
vt 0.933939 0.382533
vt 0.240534 0.005000
vt 0.436720 0.117113
vt 0.436720 0.122467
vt 0.426558 0.099510
vt 0.433192 0.107416
vt 0.378196 0.117113
vt 0.381727 0.107416
vt 0.378196 0.122467
vt 0.407459 0.092559
vt 0.417621 0.094351
vt 0.143275 0.333108
vt 0.139747 0.342804
vt 0.100398 0.423455
vt 0.100398 0.292750
vt 0.139747 0.353124
vt 0.143275 0.362820
vt 0.149909 0.370726
vt 0.158845 0.375885
vt 0.158845 0.320043
vt 0.149909 0.325201
vt 0.335932 0.465236
vt 0.571467 0.266616
vt 0.571467 0.437237
vt 0.169008 0.377677
vt 0.179170 0.375885
vt 0.188106 0.370726
vt 0.194740 0.362820
vt 0.198271 0.353124
vt 0.198271 0.342804
vt 0.194740 0.333108
vt 0.995000 0.562837
vt 0.967001 0.641655
vt 0.520513 0.758036
vt 0.535279 0.915671
vt 0.582961 0.836855
vt 0.436720 0.127432
vt 0.378196 0.127432
vt 0.388361 0.145035
vt 0.381727 0.137128
vt 0.407459 0.151985
vt 0.397297 0.150194
# 129 texture coordinates

vn -0.518568 -0.646182 0.559944
vn -0.308188 -0.951325 -0.000347
vn -0.010553 -0.999944 -0.001093
vn 0.292832 -0.703720 0.647323
vn -0.659365 -0.712496 -0.239973
vn 0.148423 -0.974271 -0.169607
vn -0.537514 -0.712501 -0.451022
vn -0.491313 -0.672374 -0.553646
vn -0.017787 -0.801761 -0.597380
vn 0.497018 -0.845312 0.196013
vn 0.837893 0.452705 -0.304947
vn 0.701673 0.712499 0.000000
vn -0.276303 0.961046 -0.006915
vn 0.537514 0.712501 -0.451022
vn -0.374096 0.471154 0.798790
vn -0.860520 -0.003833 0.509402
vn 0.779553 -0.626333 -0.001943
vn 0.999558 -0.028574 -0.008223
vn 0.860676 -0.039152 0.507646
vn 0.852203 -0.009774 -0.523120
vn 0.402190 0.915539 -0.005580
vn 0.527957 0.630911 0.568518
vn 0.199163 0.879972 -0.431257
vn -0.999746 0.014852 -0.016978
vn -0.838666 0.029253 -0.543860
vn -0.225913 0.823993 -0.519614
vn 0.322970 -0.719785 0.614492
vn 0.672319 -0.458569 0.581121
vn -0.350872 0.712493 -0.607654
vn -0.537514 0.712501 -0.451022
vn -0.350872 -0.712493 -0.607654
vn -0.109530 0.320116 -0.941026
vn -0.154899 -0.452712 -0.878099
vn -0.015603 -0.706849 -0.707193
vn 0.090812 -0.714556 -0.693659
vn 0.121894 0.712503 -0.691000
vn 0.429754 -0.456345 -0.779141
vn 0.445872 0.452701 -0.772179
vn 0.514828 -0.724156 -0.458857
vn 0.831942 -0.460042 -0.310215
vn 0.685605 -0.727974 0.000078
vn 0.659365 0.712496 0.239973
vn 0.683053 0.452710 0.573142
vn 0.350810 0.712499 0.607683
vn 0.121828 0.712497 0.691018
vn 0.135274 -0.453669 0.880844
vn -0.109470 0.320111 0.941034
vn -0.015588 -0.706849 0.707193
vn -0.350810 0.712499 0.607683
vn -0.121827 -0.712497 0.691018
vn -0.445795 -0.452708 0.772219
vn -0.683053 0.452710 0.573142
vn -0.537514 -0.712501 0.451022
vn -0.659365 0.712496 0.239973
vn -0.837893 -0.452705 0.304947
vn -0.701673 0.712499 0.000000
vn -0.701673 -0.712499 0.000000
vn -0.837893 0.452705 -0.304947
# 58 normals

usemtl wire_196088225
f 1/1/1 2/2/2 3/3/3 4/4/4
f 5/5/5 6/6/6 3/3/3 7/7/7
f 2/2/2 8/8/8 9/9/9 10/10/10
f 11/11/11 12/12/12 13/13/13 14/14/14
f 4/15/4 15/16/15 16/17/16 1/18/1
f 4/19/4 17/20/17 18/21/18 19/22/19
f 17/20/17 6/23/6 20/24/20 18/21/18
f 19/22/19 18/21/18 21/25/21 22/26/22
f 18/21/18 20/24/20 23/27/23 21/25/21
f 23/28/23 20/29/20 6/30/6 9/31/9
f 8/32/8 2/33/2 24/34/24 25/35/25
f 2/33/2 1/36/1 16/37/16 24/34/24
f 25/35/25 24/34/24 13/38/13 26/39/26
f 24/34/24 16/37/16 15/40/15 13/38/13
f 10/10/10 9/9/9 27/41/27 28/42/28
f 29/43/29 30/44/30 7/45/7 31/46/31
f 32/47/32 29/43/29 31/46/31 33/48/33
f 32/47/32 34/49/34 35/50/35 36/51/36
f 36/51/36 35/50/35 37/52/37 38/53/38
f 38/53/38 37/52/37 39/54/39 14/55/14
f 14/56/14 39/57/39 40/58/40 11/59/11
f 11/59/11 40/58/40 41/60/41 12/61/12
f 42/62/42 12/61/12 41/60/41 10/63/10
f 43/64/43 42/62/42 10/63/10 28/65/28
f 44/66/44 43/67/43 28/68/28 27/69/27
f 45/70/45 44/66/44 27/69/27 46/71/46
f 47/72/47 45/70/45 46/71/46 48/73/48
f 49/74/49 47/72/47 50/75/50 51/76/51
f 52/77/52 49/74/49 51/76/51 53/78/53
f 54/79/54 52/80/52 53/81/53 55/82/55
f 56/83/56 54/79/54 55/82/55 57/84/57
f 56/83/56 57/84/57 5/85/5 58/86/58
f 30/87/30 58/86/58 5/85/5 7/88/7
f 3/3/3 6/6/6 17/89/17 4/4/4
f 9/9/9 6/6/6 50/90/50 48/91/48
f 6/6/6 53/92/53 51/93/51 50/90/50
f 33/94/33 31/95/31 3/3/3 34/96/34
f 6/6/6 57/97/57 55/98/55 53/92/53
f 7/7/7 3/3/3 31/95/31
f 6/6/6 5/5/5 57/97/57
f 44/99/44 45/100/45 23/101/23 26/102/26
f 47/103/47 49/104/49 23/101/23 45/100/45
f 52/105/52 54/106/54 23/101/23 49/104/49
f 26/102/26 42/107/42 43/108/43 44/99/44
f 21/109/21 13/13/13 15/110/15 22/111/22
f 54/106/54 56/112/56 21/109/21 23/101/23
f 58/113/58 30/114/30 21/109/21 56/112/56
f 30/114/30 29/115/29 13/13/13 21/109/21
f 32/116/32 36/117/36 13/13/13 29/115/29
f 38/118/38 14/14/14 13/13/13 36/117/36
f 13/13/13 12/12/12 42/107/42 26/102/26
f 15/16/15 4/15/4 19/119/19 22/120/22
f 26/121/26 9/31/9 8/122/8 25/123/25
f 23/28/23 9/31/9 26/121/26
f 46/124/46 27/41/27 9/9/9 48/91/48
f 3/3/3 2/2/2 35/125/35 34/96/34
f 2/2/2 39/126/39 37/127/37 35/125/35
f 2/2/2 41/128/41 40/129/40 39/126/39
f 2/2/2 10/10/10 41/128/41
f 34/49/34 32/47/32 33/48/33
f 47/72/47 48/73/48 50/75/50

g Box002
#pivot 0.000000 0.000000 0.000000

v -0.790300 2.395700 20.442499
v -7.552400 2.395700 20.442499
v -7.552400 2.395700 10.757200
v -0.790300 2.395700 10.757200
v -0.790300 5.376000 10.757200
v -0.790300 5.376000 20.442499
v -7.552400 5.376000 10.757200
v -7.552400 5.376000 20.442499
v -1.393200 4.763000 20.442499
v -1.393200 2.906300 20.442499
v -6.949400 4.763000 20.442499
v -6.949400 4.763000 11.203200
v -1.393200 4.763000 11.203200
v -6.949400 2.906300 20.442499
v -6.949400 2.906300 11.203200
v -1.393200 2.906300 11.203200
v -5.298100 5.376000 18.884399
v -5.524700 5.376000 18.961599
v -3.142700 5.376000 18.543900
v -5.113300 5.376000 18.739300
v -6.339900 4.953200 18.321699
v -6.298100 4.953200 18.099501
v -6.298100 5.376000 18.099501
v -6.339900 5.376000 18.321699
v -6.177400 4.953200 17.904100
v -6.177400 5.376000 17.904100
v -4.992700 4.953200 18.099501
v -5.113300 4.953200 18.739300
v -4.992700 4.953200 18.543900
v -4.950800 4.953200 18.321699
v -6.298100 5.376000 18.543900
v -6.298100 4.953200 18.543900
v -6.177400 4.953200 18.739300
v -6.177400 5.376000 18.739300
v -5.992600 4.953200 18.884399
v -5.992600 5.376000 18.884399
v -5.766000 5.376000 18.961599
v -5.766000 4.953200 18.961599
v -5.524700 4.953200 18.961599
v -5.298100 4.953200 18.884399
v -4.992700 5.376000 18.543900
v -4.950800 5.376000 18.321699
v -4.992700 5.376000 18.099501
v -5.113300 4.953200 17.904100
v -5.113300 5.376000 17.904100
v -5.298100 4.953200 17.759001
v -5.298100 5.376000 17.759001
v -5.524700 5.376000 17.681900
v -5.524700 4.953200 17.681900
v -5.766000 4.953200 17.681900
v -5.766000 5.376000 17.681900
v -5.992600 4.953200 17.759001
v -5.992600 5.376000 17.759001
v -1.957900 4.953200 18.739300
v -2.142700 4.953200 18.884399
v -2.142700 5.376000 18.884399
v -1.957900 5.376000 18.739300
v -2.369300 4.953200 18.961599
v -2.369300 5.376000 18.961599
v -1.837300 5.376000 18.543900
v -1.837300 4.953200 18.543900
v -1.837300 4.953200 18.099501
v -1.795400 4.953200 18.321699
v -1.795400 5.376000 18.321699
v -1.837300 5.376000 18.099501
v -1.957900 5.376000 17.904100
v -1.957900 4.953200 17.904100
v -2.142700 4.953200 17.759001
v -2.142700 5.376000 17.759001
v -2.369300 4.953200 17.681900
v -2.369300 5.376000 17.681900
v -2.610600 4.953200 17.681900
v -2.610600 5.376000 17.681900
v -2.837300 4.953200 17.759001
v -2.837300 5.376000 17.759001
v -3.022000 4.953200 17.904100
v -3.022000 5.376000 17.904100
v -3.142700 4.953200 18.099501
v -3.142700 5.376000 18.099501
v -3.184500 4.953200 18.321699
v -3.184500 5.376000 18.321699
v -3.142700 4.953200 18.543900
v -3.022000 5.376000 18.739300
v -3.022000 4.953200 18.739300
v -2.837300 4.953200 18.884399
v -2.837300 5.376000 18.884399
v -2.610600 4.953200 18.961599
v -2.610600 5.376000 18.961599
# 88 positions

vt 0.561151 0.605805
vt 0.561151 0.749717
vt 0.767275 0.749717
vt 0.767275 0.605805
vt 0.139468 0.589567
vt 0.139468 0.795691
vt 0.076041 0.795691
vt 0.076041 0.589567
vt 0.484020 0.148912
vt 0.547447 0.148912
vt 0.547447 0.005000
vt 0.484020 0.005000
vt 0.005000 0.589567
vt 0.005000 0.795691
vt 0.068427 0.795691
vt 0.068427 0.589567
vt 0.136082 0.855101
vt 0.136082 0.815587
vt 0.148912 0.804720
vt 0.148912 0.868147
vt 0.591597 0.876284
vt 0.788229 0.876284
vt 0.788229 0.758036
vt 0.591597 0.758036
vt 0.815818 0.327477
vt 0.776304 0.327477
vt 0.776304 0.130844
vt 0.815818 0.130844
vt 0.972936 0.005000
vt 0.972936 0.123248
vt 0.776304 0.123248
vt 0.776304 0.005000
vt 0.044515 0.218123
vt 0.005000 0.218123
vt 0.005000 0.336372
vt 0.044515 0.336372
vt 0.594576 0.005000
vt 0.555061 0.005000
vt 0.555061 0.201633
vt 0.594576 0.201633
vt 0.518963 0.653781
vt 0.520605 0.648959
vt 0.511716 0.699653
vt 0.515874 0.657714
vt 0.015149 0.013887
vt 0.015149 0.009159
vt 0.024147 0.009159
vt 0.024147 0.013887
vt 0.015149 0.005000
vt 0.024147 0.005000
vt 0.117405 0.261003
vt 0.131020 0.258436
vt 0.126862 0.261003
vt 0.122134 0.261895
vt 0.024147 0.018616
vt 0.015149 0.018616
vt 0.015149 0.022775
vt 0.024147 0.022775
vt 0.050100 0.013998
vt 0.054034 0.013998
vt 0.054034 0.005000
vt 0.050100 0.005000
vt 0.045278 0.005000
vt 0.045278 0.013998
vt 0.040142 0.013998
vt 0.040142 0.005000
vt 0.035320 0.013998
vt 0.035320 0.005000
vt 0.031387 0.013998
vt 0.031387 0.005000
vt 0.070831 0.005000
vt 0.061833 0.005000
vt 0.061833 0.009159
vt 0.070831 0.009159
vt 0.070831 0.013887
vt 0.061833 0.013887
vt 0.070831 0.018616
vt 0.061833 0.018616
vt 0.070831 0.022775
vt 0.061833 0.022775
vt 0.096784 0.005000
vt 0.100718 0.005000
vt 0.100718 0.013998
vt 0.096784 0.013998
vt 0.091962 0.013998
vt 0.091962 0.005000
vt 0.086826 0.005000
vt 0.086826 0.013998
vt 0.082004 0.005000
vt 0.082004 0.013998
vt 0.078071 0.013998
vt 0.078071 0.005000
vt 0.108517 0.013998
vt 0.112450 0.013998
vt 0.112450 0.005000
vt 0.108517 0.005000
vt 0.117273 0.013998
vt 0.117273 0.005000
vt 0.084160 0.230401
vt 0.093158 0.230401
vt 0.093158 0.226242
vt 0.084160 0.226242
vt 0.151911 0.265062
vt 0.165526 0.262496
vt 0.161368 0.265062
vt 0.156639 0.265954
vt 0.093158 0.235130
vt 0.084160 0.235130
vt 0.093158 0.239859
vt 0.084160 0.239859
vt 0.084160 0.244017
vt 0.093158 0.244017
vt 0.196242 0.242480
vt 0.200175 0.242480
vt 0.200175 0.251478
vt 0.196242 0.251478
vt 0.191420 0.242480
vt 0.191420 0.251478
vt 0.186284 0.242480
vt 0.186284 0.251478
vt 0.181459 0.242480
vt 0.181459 0.251478
vt 0.177528 0.242480
vt 0.177528 0.251478
vt 0.163320 0.331888
vt 0.163320 0.327730
vt 0.172319 0.327730
vt 0.172319 0.331888
vt 0.163320 0.336617
vt 0.172319 0.336617
vt 0.172319 0.341346
vt 0.163320 0.341346
vt 0.172319 0.345505
vt 0.163320 0.345505
vt 0.127233 0.013998
vt 0.131164 0.013998
vt 0.131164 0.005000
vt 0.127233 0.005000
vt 0.122408 0.013998
vt 0.122408 0.005000
vt 0.017833 0.815587
vt 0.005000 0.804720
vt 0.017833 0.855101
vt 0.005000 0.868147
vt 0.552122 0.749717
vt 0.511716 0.727435
vt 0.515874 0.724868
vt 0.518963 0.720935
vt 0.506987 0.661173
vt 0.511716 0.660281
vt 0.506987 0.698763
vt 0.502257 0.699653
vt 0.502257 0.660281
vt 0.520605 0.716113
vt 0.552122 0.605805
vt 0.520605 0.710977
vt 0.518963 0.706153
vt 0.515874 0.702222
vt 0.498099 0.702222
vt 0.498099 0.657714
vt 0.345997 0.749717
vt 0.506987 0.728327
vt 0.498099 0.724868
vt 0.502257 0.727435
vt 0.345997 0.605805
vt 0.495011 0.720935
vt 0.493371 0.710977
vt 0.493371 0.716113
vt 0.495011 0.706153
vt 0.495011 0.653781
vt 0.493371 0.643824
vt 0.493371 0.648959
vt 0.498099 0.635068
vt 0.495011 0.639001
vt 0.502257 0.632499
vt 0.511716 0.632499
vt 0.506987 0.631610
vt 0.518963 0.639001
vt 0.515874 0.635068
vt 0.520605 0.643824
vt 0.126862 0.233221
vt 0.131020 0.235790
vt 0.117405 0.233221
vt 0.122134 0.232332
vt 0.110158 0.239723
vt 0.113246 0.235790
vt 0.134109 0.239723
vt 0.135751 0.244545
vt 0.135751 0.249681
vt 0.108517 0.244545
vt 0.110158 0.254503
vt 0.108517 0.249681
vt 0.134109 0.254503
vt 0.113246 0.258436
vt 0.161368 0.237281
vt 0.165526 0.239849
vt 0.151911 0.237281
vt 0.156639 0.236391
vt 0.144664 0.243780
vt 0.147752 0.239849
vt 0.168615 0.243780
vt 0.170257 0.248605
vt 0.170257 0.253740
vt 0.143023 0.248605
vt 0.144664 0.258563
vt 0.143023 0.253740
vt 0.168615 0.258563
vt 0.147752 0.262496
# 208 texture coordinates

vn 0.485071 -0.485071 0.727607
vn -0.485071 -0.485071 0.727607
vn -0.577350 -0.577350 -0.577350
vn 0.577350 -0.577350 -0.577350
vn 0.301511 0.904534 -0.301511
vn 0.371391 0.742781 0.557086
vn -0.140028 0.980196 -0.140028
vn -0.206284 0.928279 0.309426
vn -0.408248 -0.408248 0.816497
vn -0.408248 0.408248 0.816497
vn 0.408248 -0.408248 0.816497
vn 0.408248 0.408248 0.816497
vn -0.425219 0.452340 -0.783950
vn -0.089811 0.835491 -0.542115
vn 0.456724 0.871831 -0.176958
vn -0.523233 0.712596 -0.467370
vn 0.891279 0.453456 0.000001
vn 0.653729 0.713080 0.253288
vn 0.653729 0.713080 0.253288
vn 0.891279 0.453456 0.000001
vn 0.664895 0.452791 0.594050
vn 0.461426 0.785574 0.412261
vn -0.653746 0.713054 0.253319
vn -0.409233 0.836007 -0.365541
vn -0.831153 0.453278 -0.322061
vn -0.891264 0.453486 0.000001
vn 0.831151 0.453305 -0.322030
vn 0.409202 0.835996 -0.365602
vn 0.664895 0.452791 -0.594050
vn 0.425243 0.452346 -0.783934
vn 0.334738 0.712146 -0.617089
vn 0.145757 0.452068 -0.879994
vn 0.114762 0.711875 -0.692866
vn -0.089812 0.835491 -0.542115
vn -0.425219 0.452340 -0.783950
vn -0.653746 0.713054 -0.253318
vn -0.700903 0.713256 0.000001
vn -0.653746 0.713054 0.253319
vn -0.664960 0.452807 0.593965
vn -0.523233 0.712596 0.467370
vn -0.261758 0.835688 0.482812
vn -0.334595 0.712152 0.617160
vn -0.145615 0.452058 0.880022
vn -0.145615 0.452058 0.880022
vn 0.114628 0.711864 0.692900
vn 0.114628 0.711864 0.692900
vn 0.261770 0.835693 0.482798
vn 0.425086 0.452358 0.784012
vn -0.409233 0.836007 -0.365541
vn -0.425219 0.452340 -0.783950
vn -0.334722 0.712140 -0.617105
vn -0.664959 0.452807 -0.593965
vn -0.114785 0.711877 -0.692860
vn -0.700904 0.713256 0.000001
vn -0.831153 0.453278 0.322062
vn 0.653729 0.713080 0.253288
vn 0.700933 0.713227 0.000001
# 57 normals

usemtl wire_198225087
f 59/130/59 60/131/60 61/132/61 62/133/62
f 63/134/63 64/135/64 59/136/59 62/137/62
f 63/138/63 62/139/62 61/140/61 65/141/65
f 66/142/66 65/143/65 61/144/61 60/145/60
f 67/146/67 68/147/68 59/148/59 64/149/64
f 69/150/69 70/151/59 71/152/60 67/153/67
f 69/154/69 72/155/70 73/156/64 70/157/59
f 72/158/70 68/159/68 74/160/66 73/161/64
f 74/162/66 71/163/60 70/164/59 73/165/64
f 68/166/68 67/167/67 71/168/60 74/169/66
f 75/170/71 76/171/72 77/172/73 78/173/74
f 79/174/75 80/175/76 81/176/77 82/177/78
f 80/175/76 83/178/79 84/179/80 81/176/77
f 85/180/81 86/181/82 87/182/83 88/183/84
f 82/177/78 89/184/73 90/185/85 79/174/75
f 91/186/86 90/185/85 89/184/73 92/187/87
f 93/188/88 91/189/86 92/190/87 94/191/89
f 93/188/88 94/191/89 95/192/90 96/193/91
f 97/194/92 96/193/91 95/192/90 76/195/72
f 98/196/93 97/194/92 76/195/72 75/197/71
f 86/198/82 98/196/93 75/197/71 78/199/74
f 86/200/82 78/201/74 99/202/94 87/203/83
f 88/204/84 87/203/83 99/202/94 100/205/95
f 85/206/81 88/204/84 100/205/95 101/207/96
f 102/208/97 85/206/81 101/207/96 103/209/98
f 104/210/99 102/211/97 103/212/98 105/213/100
f 104/210/99 105/213/100 106/214/101 107/215/102
f 108/216/103 107/215/102 106/214/101 109/217/104
f 110/218/105 108/216/103 109/217/104 111/219/106
f 110/218/105 111/219/106 84/220/80 83/221/79
f 112/222/107 113/223/108 114/224/109 115/225/110
f 113/223/108 116/226/92 117/227/111 114/224/109
f 118/228/94 119/229/83 112/230/107 115/231/110
f 120/232/81 112/233/107 119/234/83 121/235/84
f 121/236/84 119/229/83 118/228/94 122/237/112
f 120/238/81 121/236/84 122/237/112 123/239/113
f 120/238/81 123/239/113 124/240/98 125/241/97
f 126/242/99 125/243/97 124/244/98 127/245/100
f 128/246/102 126/242/99 127/245/100 129/247/101
f 130/248/103 128/246/102 129/247/101 131/249/104
f 132/250/105 130/248/103 131/249/104 133/251/106
f 134/252/79 132/250/105 133/251/106 135/253/80
f 136/254/76 134/255/79 135/256/80 137/257/114
f 138/258/75 136/254/76 137/257/114 139/259/115
f 138/258/75 139/259/115 77/260/73 140/261/85
f 140/261/85 77/260/73 141/262/87 142/263/86
f 143/264/88 142/265/86 141/266/87 144/267/89
f 145/268/91 143/264/88 144/267/89 146/269/90
f 145/268/91 146/269/90 117/227/111 116/226/92
f 68/147/68 72/270/70 60/271/60 59/148/59
f 72/270/70 69/272/69 66/273/66 60/271/60
f 69/272/69 67/146/67 64/149/64 66/273/66
f 64/274/64 118/275/94 115/276/110 114/277/109
f 100/278/95 99/279/94 77/172/73 139/280/115
f 139/280/115 137/281/114 101/282/96 100/278/95
f 117/283/111 66/284/66 64/274/64 114/277/109
f 146/285/90 144/286/89 66/284/66 117/283/111
f 141/287/87 77/172/73 66/284/66 144/286/89
f 135/288/80 103/289/98 101/282/96 137/281/114
f 78/173/74 77/172/73 99/279/94
f 64/274/64 63/290/63 122/291/112 118/275/94
f 63/290/63 124/292/98 123/293/113 122/291/112
f 63/290/63 65/294/65 127/295/100 124/292/98
f 65/294/65 131/296/104 129/297/101 127/295/100
f 65/294/65 135/288/80 133/298/106 131/296/104
f 65/294/65 105/299/100 103/289/98 135/288/80
f 65/294/65 109/300/104 106/301/101 105/299/100
f 65/294/65 84/302/80 111/303/106 109/300/104
f 65/294/65 66/284/66 81/304/77 84/302/80
f 66/284/66 89/305/73 82/306/78 81/304/77
f 66/284/66 94/307/89 92/308/87 89/305/73
f 66/284/66 76/171/72 95/309/90 94/307/89
f 77/172/73 76/171/72 66/284/66
f 90/310/85 91/311/86 80/312/76 79/313/75
f 91/311/86 110/314/105 83/315/79 80/312/76
f 93/316/88 96/317/91 110/314/105 91/311/86
f 96/317/91 97/318/92 108/319/103 110/314/105
f 97/318/92 104/320/99 107/321/102 108/319/103
f 98/322/93 86/181/82 104/320/99 97/318/92
f 86/181/82 85/180/81 102/323/97 104/320/99
f 140/324/85 142/325/86 136/326/76 138/327/75
f 142/325/86 132/328/105 134/329/79 136/326/76
f 143/330/88 145/331/91 132/328/105 142/325/86
f 145/331/91 116/332/92 130/333/103 132/328/105
f 116/332/92 126/334/99 128/335/102 130/333/103
f 113/336/108 112/233/107 126/334/99 116/332/92
f 112/233/107 120/232/81 125/337/97 126/334/99

g Box004
#pivot 0.000000 0.000000 0.000000

v -7.370300 2.906300 20.072800
v -7.370300 2.906300 12.037000
v -0.972400 2.906300 12.037000
v -0.972400 2.906300 20.072800
v -7.370300 3.214600 20.072800
v -0.972400 3.214600 20.072800
v -0.972400 3.214600 12.037000
v -7.370300 3.214600 12.037000
# 8 positions

vt 0.005000 0.581616
vt 0.176020 0.581616
vt 0.176020 0.445455
vt 0.005000 0.445455
vt 0.602266 0.461693
vt 0.602266 0.597854
vt 0.431247 0.597854
vt 0.431247 0.461693
vt 0.058246 0.356315
vt 0.058246 0.220153
vt 0.051684 0.220153
vt 0.051684 0.356315
vt 0.082130 0.423649
vt 0.082130 0.252629
vt 0.088692 0.252629
vt 0.088692 0.423649
vt 0.074484 0.360374
vt 0.074484 0.224213
vt 0.067922 0.224213
vt 0.067922 0.360374
vt 0.585980 0.381024
vt 0.585980 0.210004
vt 0.579418 0.210004
vt 0.579418 0.381024
# 24 texture coordinates

vn -0.577350 -0.577350 0.577350
vn -0.577350 -0.577350 -0.577350
vn 0.577350 -0.577350 -0.577350
vn 0.577350 -0.577350 0.577350
vn -0.577350 0.577350 0.577350
vn 0.577350 0.577350 0.577350
vn 0.577350 0.577350 -0.577350
vn -0.577350 0.577350 -0.577350
# 8 normals

usemtl wire_198225087
f 147/338/116 148/339/117 149/340/118 150/341/119
f 151/342/120 152/343/121 153/344/122 154/345/123
f 147/346/116 150/347/119 152/348/121 151/349/120
f 150/350/119 149/351/118 153/352/122 152/353/121
f 149/354/118 148/355/117 154/356/123 153/357/122
f 148/358/117 147/359/116 151/360/120 154/361/123

# 154 faces
