# 3ds Max Wavefront OBJ Exporter v0.97b - (c)2007 guruware
# File Created: 08.12.2019 07:04:51

mtllib ????????.mtl

#
# object Box002
#

#
# object Sphere002
#

#
# object Box005
#

v  -2.6376 1.3452 -0.0161
v  -4.2741 6.4259 0.9900
v  -4.2392 7.5777 -0.9622
v  -3.8656 3.4626 -2.4871
v  -1.8023 0.7065 0.3270
v  -4.6128 11.6927 0.5626
v  -4.2043 8.7294 -2.9145
v  -2.0949 2.1086 -1.7598
v  -1.9810 1.9075 -1.5228
v  -1.9478 1.7518 -1.2917
v  -2.1759 4.8215 1.8519
v  -1.8050 1.0832 -0.2993
v  -1.7911 1.0759 -0.2993
v  -4.4108 8.3732 1.0283
v  -4.6031 12.0136 0.0186
v  -2.7486 3.7869 -3.9949
v  -2.3880 2.6262 -2.3699
v  -2.3880 3.1490 -3.2425
v  -2.3880 -0.8453 -2.3699
v  -1.3933 -0.8453 -0.2993
v  -0.2161 -0.0819 0.2700
v  -0.1751 0.0004 0.3081
v  -0.0117 0.3286 0.4597
v  -1.0396 0.6862 -0.2993
v  -0.6293 0.4575 -0.2726
v  -0.6325 0.4751 -0.2993
v  -2.5495 8.9365 3.3768
v  -2.9343 14.7108 3.1374
v  -2.3880 7.3405 -2.1685
v  -2.3880 6.8809 -2.3699
v  -2.3057 6.0878 -2.6562
v  -2.3880 3.5111 -3.8468
v  -2.4797 11.2399 -0.5278
v  -2.3880 3.8136 -4.4405
v  -2.3880 3.8136 -3.7142
v  -0.3174 -0.8453 -0.2993
v  -0.0777 3.2170 2.7138
v  0.2133 0.2117 0.5965
v  0.2629 0.1090 0.5648
v  -0.6056 0.3250 -0.0720
v  -0.6416 0.2828 0.0296
v  -0.3174 0.0137 -0.2993
v  -0.7164 0.2841 -0.2993
v  -0.4625 0.1121 -0.2993
v  -2.1469 4.5555 -3.2092
v  -2.1698 7.8257 -1.7930
v  -2.3880 7.6822 -2.0187
v  -2.3880 8.4724 -2.3699
v  -1.7932 5.6437 -4.4405
v  -2.3880 -0.8453 -3.1942
v  -0.3174 -0.8453 -2.3699
v  0.2486 0.2637 0.6268
v  0.0631 2.7839 0.8210
v  -0.0428 4.3687 0.7615
v  0.0506 3.0093 0.7690
v  0.0518 3.0087 0.7492
v  0.0600 3.0051 0.6138
v  -0.0240 -0.1852 -0.2993
v  -0.4251 8.2003 2.7668
v  -0.4165 8.4837 2.2863
v  -2.1185 10.3904 0.5774
v  -2.1081 7.6473 -1.6319
v  -1.0394 7.9003 -0.3267
v  -0.8269 8.4724 -0.2993
v  -1.0318 7.8611 -0.2993
v  -0.3174 8.4724 -4.4405
v  -0.3174 3.8136 -4.4405
v  0.6364 -0.8453 -0.2993
v  0.0704 3.0004 0.4411
v  0.0911 2.8936 0.2148
v  0.6803 -0.6624 -0.2993
v  -0.0096 -0.1949 -0.2993
v  -0.0153 5.2790 -0.7816
v  -0.3174 5.8292 -0.2993
v  -0.8362 7.3050 -0.2993
v  -0.3174 8.4724 -0.2993
v  -0.3174 13.7060 -2.3699
v  -0.3174 -0.8453 -4.4405
v  1.7532 -0.8453 -2.3699
v  0.0577 3.8136 -0.2993
v  -0.0072 5.1729 -0.7945
v  0.1380 2.6508 -0.2993
v  1.2648 -0.4752 -1.2998
v  1.7532 0.3147 -1.8543
v  1.5193 -0.3936 -1.7355
v  1.0278 -0.5511 -0.8942
v  0.7458 8.4724 -1.9967
v  0.2596 8.4724 -4.4405
v  1.7532 3.8136 -4.4405
v  0.3199 3.2631 -0.2993
v  0.7187 3.8136 -0.2993
v  0.9078 4.0645 -0.3907
v  1.5225 4.8804 -0.6879
v  1.0651 4.2733 -0.4667
v  1.7532 3.8136 -2.3699
v  1.7532 3.8136 -1.7957
v  1.7532 3.2089 -1.8722
v  1.7532 2.0487 -2.0191
v  1.7532 2.3977 -1.9749
v  1.7532 0.9817 -2.1542
v  1.7532 8.4724 -2.3699
v  1.7532 -0.8453 -3.3726
v  1.5296 4.8478 -1.0714
v  1.6735 4.1825 -1.8027
v  -0.6839 0.1004 -0.0220
v  -0.1935 -0.3885 0.2465
v  1.5531 -1.0747 -0.6067
v  1.2857 -1.3563 0.1870
v  1.1931 1.6574 1.4395
v  1.7902 -0.8251 -1.3103
v  2.4250 0.4293 2.1138
v  2.9397 0.9711 0.5863
v  3.4544 1.5130 -0.9411
v  2.5797 3.7032 2.6325
v  0.6537 3.8448 0.7951
v  4.3262 3.0170 1.7794
v  4.1996 2.8837 2.1553
v  1.8625 5.4732 0.4308
v  3.5807 4.3020 0.4423
v  2.2225 2.7411 -1.6154
v  4.6519 6.5433 2.4452
v  3.6090 4.7870 -0.4224
v  2.0059 5.6242 0.0052
# 123 vertices

vn -0.6793 -0.7973 0.3595
vn -0.7928 -0.4296 0.6088
vn -0.8873 -0.2911 0.1748
vn -0.7957 -0.5299 -0.0851
vn -0.5316 -0.8873 0.4694
vn -0.8654 -0.1496 0.4594
vn -0.3735 0.3548 -0.7569
vn -0.7652 -0.6970 0.2335
vn -0.7776 -0.6754 0.2125
vn -0.7387 -0.7036 0.0131
vn -0.5553 -0.5471 0.8458
vn -0.6597 -0.8214 0.0549
vn -0.0638 -0.1743 -0.9902
vn -0.8336 -0.3512 0.5430
vn -0.5395 0.5070 -0.4261
vn -0.1036 -0.1754 -0.9776
vn -0.4505 0.6060 0.6095
vn -0.7795 -0.6142 -0.0162
vn -0.7017 -0.7483 0.4311
vn -0.4816 -0.7082 0.7746
vn 0.3957 -0.8198 -0.1934
vn -0.4379 -0.4812 0.9401
vn -0.4807 -0.5480 0.8895
vn -0.4787 -0.8601 0.5869
vn -0.8500 -0.4945 0.1672
vn -0.7208 -0.6126 0.6061
vn -0.3877 -0.3445 1.0011
vn -0.0099 0.8736 0.4902
vn -0.3814 0.4060 -0.7222
vn -0.2485 0.3972 -0.8418
vn -0.2485 0.3910 -0.8447
vn -0.8342 -0.3836 -0.0882
vn 0.5988 0.6361 -0.7486
vn -0.5482 0.0784 -0.6622
vn -0.2536 0.6063 -0.7029
vn -0.2109 -0.7669 0.7835
vn 0.3465 -0.4113 0.7534
vn -0.5556 -0.5911 0.8184
vn 0.1482 -0.8416 -0.4989
vn -0.8602 -0.3811 0.0287
vn -0.6967 -0.7554 -0.0172
vn -0.5285 -0.8135 0.6162
vn -0.5119 -0.3630 0.9464
vn -0.4356 -0.6638 0.8346
vn -0.3044 0.5151 -0.7276
vn 0.7495 0.3618 -0.7201
vn -0.8029 -0.3279 0.6309
vn -0.8201 0.1852 0.0151
vn -0.4103 0.2490 -0.7652
vn -0.6358 -0.6823 -0.2887
vn -0.1749 -1.0232 0.3030
vn -0.7480 -0.4725 0.6721
vn 0.4508 0.0430 0.7782
vn 0.8858 0.3088 -0.1776
vn 0.6254 0.5802 0.4063
vn -0.4661 0.7353 -0.1778
vn 0.3242 1.0048 -0.3386
vn -0.5475 -0.8729 -0.1260
vn 0.6395 0.0975 0.5605
vn 0.8527 0.4482 -0.3814
vn 0.4024 -0.4094 -0.8435
vn 0.1292 0.9687 0.2999
vn 0.8173 0.4350 -0.5420
vn -0.4585 -0.0699 0.9952
vn -0.7155 -0.4207 0.7484
vn -0.0542 0.4405 -0.9335
vn 0.1461 0.2319 -1.0435
vn 0.1429 -0.6709 0.7349
vn -0.8272 0.1588 0.0120
vn 0.2214 0.8935 -0.6268
vn 0.4277 0.2266 0.7809
vn 0.8119 0.1533 0.2261
vn -0.2628 -0.6854 0.8560
vn 0.4945 0.1304 0.7332
vn 0.2348 -0.0410 0.9362
vn 0.0208 1.0072 0.1548
vn -0.0340 -0.6560 -0.7531
vn 0.5613 -0.6245 0.1748
vn 0.5908 0.1307 0.6253
vn 0.5583 0.2034 0.6565
vn 0.0475 0.8988 0.4513
vn 0.0971 -0.9753 0.2442
vn 0.8205 0.0531 -0.5800
vn -0.1882 -0.3012 -0.9117
vn 0.4530 -0.7345 0.2226
vn 0.2649 -0.5996 0.6983
vn 0.4490 0.4770 -0.9376
vn 0.6970 0.3068 -0.8060
vn -0.3793 0.4307 -0.7097
vn -0.6054 0.3887 0.6661
vn -0.5585 0.4423 0.6749
vn 0.6179 0.0343 0.5880
vn -0.5085 0.4141 0.7578
vn 0.8915 0.2158 -0.1875
vn 0.7792 0.3973 -0.6541
vn 0.8083 0.3235 -0.6199
vn 0.8916 0.1758 -0.1921
vn -0.3007 -0.0251 -0.8965
vn 0.8324 0.2129 0.1613
vn 0.5643 -0.6100 -0.4015
vn -0.5536 0.4391 -0.4711
vn 0.7866 0.5045 -0.5690
vn -0.8164 -0.5481 0.4145
vn -0.6140 -0.8082 0.5102
vn 0.0617 -1.0049 -0.0538
vn -0.0894 -1.0062 0.3380
vn -0.5664 -0.3952 0.9039
vn 0.2574 -0.8028 -0.4927
vn 0.0237 -0.7220 0.7595
vn 0.7268 -0.3986 0.0511
vn 0.8463 0.0025 -0.4678
vn -0.4309 -0.1395 1.0103
vn -0.7425 0.2829 0.5118
vn 0.8415 -0.1439 -0.2725
vn 0.4723 -0.3975 0.6236
vn -0.5821 0.6246 0.2924
vn 0.3048 -0.6692 -0.6593
vn 0.5947 0.4102 -0.8782
vn 0.3984 0.7782 0.4711
vn 0.7201 0.3455 -0.7679
vn -0.1556 0.8772 -0.4470
# 121 vertex normals

vt 1.0000 0.0000 0.0000
vt 1.0000 0.5000 0.0000
vt 0.5000 0.5000 0.0000
vt 0.5000 0.0000 0.0000
vt 0.5000 1.0000 0.0000
vt 0.0000 0.5000 0.0000
vt 0.5000 0.4220 0.0000
vt 0.4516 0.4208 0.0000
vt 0.3964 0.3964 0.0000
vt 0.0000 0.0000 0.0000
vt 0.1590 0.4917 0.0000
vt 0.1604 0.5000 0.0000
vt 1.0000 1.0000 0.0000
vt 0.0000 1.0000 0.0000
vt 0.6245 0.3500 0.0000
vt 0.8464 0.3464 0.0000
vt 0.7046 0.7046 0.0000
vt 0.6830 0.6473 0.0000
vt 0.6274 0.5000 0.0000
vt 0.7930 1.0000 0.0000
vt 0.7213 0.7604 0.0000
vt 1.0000 0.8750 0.0000
vt 0.9869 0.8870 0.0000
vt 0.9348 0.9348 0.0000
vt 0.0030 0.2062 0.0000
vt 0.0000 0.2070 0.0000
vt 0.1644 0.1644 0.0000
vt 0.2750 0.7750 0.0000
vt 0.2389 0.6778 0.0000
vt 0.2814 0.7741 0.0000
vt 0.5000 0.4328 0.0000
vt 0.4400 0.3912 0.0000
vt 0.3446 0.3446 0.0000
vt 1.0000 0.1775 0.0000
vt 0.5713 0.2893 0.0000
vt 0.5325 0.1434 0.0000
vt 0.5000 0.1754 0.0000
vt 0.9264 0.9900 0.0000
vt 0.9363 1.0000 0.0000
vt 0.1756 0.7814 0.0000
vt 0.1261 0.7733 0.0000
vt -0.0000 0.8750 0.0000
vt 0.5000 0.0922 0.0000
vt 0.3146 0.1212 0.0000
vt 0.4325 0.1027 0.0000
vt 0.3536 0.1417 0.0000
vt 0.1604 0.3551 0.0000
vt 0.0395 0.1920 0.0000
vt 0.0000 0.1775 0.0000
vt 0.5852 0.5000 0.0000
vt 0.5446 0.4408 0.0000
vt 0.1708 0.5000 0.0000
vt 0.1215 0.5486 0.0000
vt 0.0848 0.5848 0.0000
vt 0.2973 0.2973 0.0000
vt 0.2140 0.4309 0.0000
vt 0.0000 0.0637 0.0000
vt 0.0082 0.0828 0.0000
vt 0.2898 0.3455 0.0000
vt 0.3276 0.3649 0.0000
vt 0.3312 0.3637 0.0000
vt 0.3553 0.3553 0.0000
vt 0.5708 0.0708 0.0000
vt 0.5800 0.5800 0.0000
vt 0.0694 0.6393 0.0000
vt 0.0614 0.9934 0.0000
vt 0.0886 0.6782 0.0000
vt 0.0656 1.0000 0.0000
vt 0.4245 0.3447 0.0000
vt 0.5000 0.3208 0.0000
vt 1.0000 0.0196 0.0000
vt 0.5796 0.0698 0.0000
vt 0.7443 1.0000 0.0000
vt 0.8952 0.5000 0.0000
vt 0.8356 0.5706 0.0000
vt 0.9912 0.7424 0.0000
vt 1.0000 0.7443 0.0000
vt 0.9486 0.6954 0.0000
vt 0.0000 0.9344 0.0000
vt 0.3747 0.8747 0.0000
vt 0.6797 0.3823 0.0000
vt 0.8896 0.4887 0.0000
vt 0.5891 0.2663 0.0000
vt 0.0196 1.0000 0.0000
vt 0.0397 0.7584 0.0000
vt 0.1245 0.6245 0.0000
vt 0.0485 0.6532 0.0000
vt 0.0316 0.8563 0.0000
vt 0.5000 0.7163 0.0000
vt 0.6421 0.6573 0.0000
vt 0.6459 0.6459 0.0000
vt 0.6539 0.4409 0.0000
vt 0.7502 0.5000 0.0000
vt 0.5906 0.5000 0.0000
vt 0.6100 0.3752 0.0000
vt 0.8089 0.5269 0.0000
vt 1.0000 0.6145 0.0000
vt 0.8578 0.5493 0.0000
vt 0.5000 0.6387 0.0000
vt 0.4351 0.6202 0.0000
vt 0.3106 0.5847 0.0000
vt 0.3480 0.5954 0.0000
vt 0.1961 0.5521 0.0000
vt 0.6145 1.0000 0.0000
vt 0.6110 0.9045 0.0000
vt 0.5396 0.6694 0.0000
vt 1.0000 0.0328 0.0000
vt 0.9662 0.0338 0.0000
vt 0.9283 0.0000 0.0000
vt 0.9144 0.0337 0.0000
vt 0.9075 0.0337 0.0000
vt 0.9406 0.4406 0.0000
vt 0.9586 0.4224 0.0000
vt 0.9672 0.0000 0.0000
vt 0.1101 0.1101 0.0000
vt 0.0717 0.0000 0.0000
vt 0.1321 0.2351 0.0000
vt 0.1765 0.4876 0.0000
vt 0.1786 0.5000 0.0000
vt 0.8533 0.5000 0.0000
vt 0.8690 0.4263 0.0000
vt 0.2830 0.7364 0.0000
vt 0.5000 0.7868 0.0000
vt 0.8652 0.5279 0.0000
vt 0.8406 0.5000 0.0000
vt 0.8212 0.8212 0.0000
vt 0.5000 0.0414 0.0000
vt 1.0000 0.8581 0.0000
vt 0.4355 0.0000 0.0000
vt 0.0000 0.8581 0.0000
vt 0.1083 0.7917 0.0000
vt 0.1752 0.6752 0.0000
vt 0.9762 0.5238 0.0000
vt 1.0000 0.5645 0.0000
vt 0.3308 0.5000 0.0000
vt 0.5000 0.6557 0.0000
vt 0.5645 0.6115 0.0000
vt 0.8939 0.5000 0.0000
vt 0.6516 0.5000 0.0000
vt 0.9400 0.5134 0.0000
vt 0.3817 0.3817 0.0000
vt 0.3075 0.6925 0.0000
vt 0.8356 0.4695 0.0000
vt 0.7030 0.4001 0.0000
vt 0.5000 0.3095 0.0000
vt 0.0742 0.7996 0.0000
vt 0.0000 0.7654 0.0000
vt 0.5882 0.2103 0.0000
vt 0.6304 0.1304 0.0000
vt 0.7654 -0.0000 0.0000
# 150 texture coords

o Box005
g Box005
usemtl wire_087225198
s 2
f 1/1/1 2/2/2 3/3/3 
f 3/3/3 4/4/4 1/1/1 
s 64
f 2/4/2 1/1/1 5/2/5 
s 2
f 6/5/6 3/3/3 2/2/2 
f 4/4/4 3/3/3 7/6/7 
s 8
f 8/7/8 9/8/9 10/9/10 4/4/4 
f 1/10/1 4/4/4 10/9/10 
s 64
f 5/2/5 11/3/11 2/4/2 
s 8
f 5/6/5 1/10/1 10/9/10 12/11/12 
f 13/12/13 5/6/5 12/11/12 
s 2
f 2/2/2 14/13/14 6/5/6 
f 3/3/3 6/5/6 15/14/15 
f 7/6/7 16/10/16 4/4/4 
f 15/14/15 7/6/7 3/3/3 
s 8
f 17/15/17 8/7/8 4/4/4 18/16/18 
s 2048
f 19/2/19 20/13/20 9/17/9 8/18/8 
f 17/19/17 19/2/19 8/18/8 
f 12/20/12 10/21/10 9/17/9 20/13/20 
s 64
f 21/22/21 22/23/22 23/24/23 5/2/5 
f 11/3/11 5/2/5 23/24/23 
f 14/10/14 2/4/2 11/3/11 
s 128
f 13/25/13 12/26/12 20/10/20 24/27/24 
s 8
f 25/28/25 5/6/5 13/12/13 24/29/24 
f 25/28/25 24/29/24 26/30/26 
s 32
f 6/4/6 14/1/14 27/2/27 
f 15/10/15 6/4/6 28/3/28 
s 16
f 16/10/16 7/4/7 29/31/29 30/32/30 
f 16/10/16 30/32/30 31/33/31 
s 8
f 18/16/18 4/4/4 16/1/16 32/34/32 
s 16
f 7/4/7 15/1/15 33/2/33 
s 2048
f 17/19/17 18/35/18 32/36/32 34/4/34 
f 32/36/32 35/37/35 34/4/34 
f 19/2/19 17/19/17 34/4/34 
s 256
f 36/5/36 20/14/20 19/6/19 
s 64
f 37/5/37 11/3/11 23/24/23 38/38/38 
f 39/39/39 37/5/37 38/38/38 
s 8
f 5/6/5 25/28/25 40/40/40 41/41/41 
f 21/42/21 5/6/5 41/41/41 
s 64
f 11/3/11 27/6/27 14/10/14 
s 128
f 20/10/20 36/4/36 42/43/42 43/44/43 
f 42/43/42 44/45/44 43/44/43 
f 20/10/20 43/44/43 26/46/26 24/27/24 
s 32
f 27/2/27 28/3/28 6/4/6 
f 28/3/28 33/6/33 15/10/15 
s 16
f 16/10/16 31/33/31 45/47/45 35/48/35 
f 32/49/32 16/10/16 35/48/35 
f 33/2/33 46/50/46 47/51/47 29/31/29 
f 33/2/33 29/31/29 7/4/7 
s 2048
f 30/52/30 29/53/29 47/54/47 48/6/48 
f 48/6/48 49/10/49 45/55/45 31/56/31 
f 30/52/30 48/6/48 31/56/31 
f 34/4/34 50/1/50 19/2/19 
f 49/10/49 34/4/34 35/37/35 45/55/45 
s 256
f 19/6/19 51/3/51 36/5/36 
s 4
f 37/6/37 39/57/39 52/58/52 53/59/53 
f 54/3/54 37/6/37 53/59/53 55/60/55 
f 54/3/54 55/60/55 56/61/56 57/62/57 
s 64
f 27/6/27 11/3/11 37/5/37 
s 128
f 42/43/42 36/4/36 58/63/58 
s 32
f 28/3/28 27/2/27 59/13/59 
f 33/6/33 28/3/28 60/5/60 
s 16
f 46/50/46 33/2/33 61/13/61 62/64/62 
s 2048
f 48/6/48 47/54/47 46/65/46 63/66/63 
f 46/65/46 62/67/62 63/66/63 
f 64/14/64 48/6/48 63/66/63 65/68/65 
s 1024
f 66/4/66 49/1/49 48/2/48 
s 1
f 50/1/50 34/2/34 67/3/67 
s 256
f 51/3/51 19/6/19 50/10/50 
s 1
f 34/2/34 49/13/49 66/5/66 
s 256
f 68/13/68 36/5/36 51/3/51 
s 4
f 69/69/69 70/70/70 54/3/54 57/62/57 
f 37/6/37 54/3/54 60/5/60 
s 64
f 37/5/37 59/14/59 27/6/27 
s 128
f 36/4/36 68/1/68 71/71/71 72/72/42 
f 36/4/36 72/72/42 58/63/58 
s 32
f 59/13/59 60/5/60 28/3/28 
f 60/5/60 61/14/61 33/6/33 
s 16
f 62/64/62 61/13/61 63/73/63 
s 4
f 54/3/54 73/74/72 74/75/73 61/13/61 
f 65/76/65 63/77/63 61/13/61 75/78/74 
f 74/75/73 75/78/74 61/13/61 
s 128
f 76/5/75 64/14/64 65/79/65 75/80/74 
s 1024
f 77/3/76 48/2/48 64/13/64 
f 48/2/48 77/3/76 66/4/66 
s 1
f 67/3/67 78/4/77 50/1/50 
f 66/5/66 67/3/67 34/2/34 
s 256
f 50/10/50 78/4/77 51/3/51 
f 51/3/51 79/2/78 68/13/68 
s 4
f 80/81/79 81/82/80 73/74/72 54/3/54 
f 82/83/81 80/81/79 54/3/54 70/70/70 
f 60/5/60 59/14/59 37/6/37 
f 61/13/61 60/5/60 54/3/54 
s 512
f 71/84/71 68/14/68 79/6/78 83/85/82 
f 79/6/78 84/86/83 85/87/84 83/85/82 
f 71/84/71 83/85/82 86/88/85 
s 128
f 87/13/86 76/5/75 74/89/73 73/90/72 
f 87/13/86 73/90/72 81/91/80 
f 74/89/73 76/5/75 75/80/74 
s 1024
f 64/13/64 76/5/75 77/3/76 
f 88/10/87 66/4/66 77/3/76 
s 1
f 78/4/77 67/3/67 89/6/88 
f 67/3/67 66/5/66 88/14/87 
s 256
f 79/2/78 51/3/51 78/4/77 
s 128
f 90/92/89 91/93/90 80/94/79 82/95/81 
f 80/94/79 91/93/90 92/96/91 93/97/92 
f 92/96/91 94/98/93 93/97/92 
f 80/94/79 93/97/92 87/13/86 81/91/80 
s 512
f 95/3/94 96/99/95 97/100/96 98/101/96 
f 97/100/96 99/102/97 98/101/96 
f 95/3/94 98/101/96 100/103/98 79/6/78 
f 79/6/78 100/103/98 84/86/83 
s 1024
f 76/5/75 87/14/86 101/6/99 
f 101/6/99 77/3/76 76/5/75 
f 77/3/76 101/6/99 88/10/87 
s 1
f 89/6/88 102/10/100 78/4/77 
f 88/14/87 89/6/88 67/3/67 
s 256
f 78/4/77 102/1/100 79/2/78 
s 512
f 87/13/86 93/104/92 103/105/101 104/106/102 
f 87/13/86 104/106/102 96/99/95 95/3/94 
f 95/3/94 79/6/78 102/10/100 
f 95/3/94 101/2/99 87/13/86 
f 89/4/88 88/1/87 101/2/99 
f 102/10/100 89/4/88 95/3/94 
f 101/2/99 95/3/94 89/4/88 
s 4096
f 105/1/103 41/107/41 40/108/40 
f 43/109/43 105/1/103 40/108/40 25/110/25 
f 43/109/43 25/110/25 26/111/26 
s 131072
f 106/2/104 22/112/22 21/113/21 105/1/103 
f 41/114/41 105/1/103 21/113/21 
s 16384
f 44/115/44 105/10/103 43/116/43 
f 106/6/104 105/10/103 44/115/44 42/117/42 
f 106/6/104 42/117/42 58/118/58 72/119/42 
s 131072
f 38/120/38 23/121/23 22/112/22 106/2/104 
s 16384
f 106/6/104 72/119/42 71/122/71 107/5/105 
f 71/122/71 86/123/85 107/5/105 
s 131072
f 39/124/39 38/120/38 106/2/104 108/13/106 
f 52/125/52 39/124/39 108/13/106 109/3/107 
s 16384
f 107/5/105 108/14/106 106/6/104 
f 83/126/82 110/13/108 107/5/105 86/123/85 
s 131072
f 108/13/106 111/5/109 109/3/107 
f 52/125/52 109/3/107 53/127/53 
s 8192
f 108/10/106 107/4/105 112/3/110 
s 16384
f 85/128/84 110/13/108 83/126/82 
s 8192
f 107/4/105 110/1/108 113/2/111 
f 112/3/110 111/6/109 108/10/106 
s 131072
f 114/6/112 109/3/107 111/5/109 
f 53/127/53 109/3/107 115/10/113 55/129/55 
s 8192
f 113/2/111 112/3/110 107/4/105 
s 32768
f 113/5/111 110/14/108 85/130/84 84/131/83 
f 113/5/111 84/131/83 100/132/98 
s 8192
f 111/6/109 112/3/110 116/5/114 
s 131072
f 111/5/109 117/14/115 114/6/112 
f 109/3/107 114/6/112 115/10/113 
s 4096
f 115/13/113 118/5/116 56/133/56 55/134/55 
s 8192
f 112/3/110 113/2/111 119/13/117 
s 32768
f 98/135/96 120/3/118 113/5/111 100/132/98 
s 8192
f 116/5/114 117/14/115 111/6/109 
f 119/13/117 116/5/114 112/3/110 
s 65536
f 121/3/119 114/2/112 117/13/115 
f 118/4/116 115/1/113 114/2/112 
s 4096
f 118/5/116 92/136/91 91/137/90 69/138/69 
f 91/137/90 90/139/89 69/138/69 
f 118/5/116 69/138/69 57/140/57 56/133/56 
s 32768
f 119/13/117 113/5/111 120/3/118 
f 99/141/97 120/3/118 98/135/96 
s 65536
f 117/13/115 116/5/114 121/3/119 
f 116/5/114 119/14/117 122/6/120 
f 114/2/112 121/3/119 118/4/116 
s 4096
f 118/5/116 123/14/121 94/142/93 92/136/91 
f 70/143/70 69/138/69 90/139/89 82/144/81 
s 32768
f 120/3/118 122/2/120 119/13/117 
f 97/145/96 120/3/118 99/141/97 
s 65536
f 122/6/120 121/3/119 116/5/114 
f 123/10/121 118/4/116 121/3/119 
s 4096
f 93/146/92 94/142/93 123/14/121 103/147/101 
s 32768
f 122/2/120 120/3/118 97/145/96 96/148/95 
f 122/2/120 96/148/95 104/149/102 
s 65536
f 121/3/119 122/6/120 123/10/121 
s 32768
f 103/150/101 123/1/121 122/2/120 104/149/102 
# 63 polygons - 116 triangles

